<?xml version="1.0" encoding="utf-8"?>
<!-- Generator: Adobe Illustrator 26.5.0, SVG Export Plug-In . SVG Version: 6.00 Build 0)  -->
<svg version="1.1" id="Layer_1" xmlns="http://www.w3.org/2000/svg" xmlns:xlink="http://www.w3.org/1999/xlink" x="0px" y="0px"
	 viewBox="0 0 794.3 159.1" style="enable-background:new 0 0 794.3 159.1;" xml:space="preserve">
<style type="text/css">
	.st0{fill:#FF7800;}
	.st1{fill:#FFFFFF;}
	.st2{fill:#2D364C;}
</style>
<g id="Layer_2_00000165196974143339889840000006521617385126058901_">
	<g id="svg8">
		<path class="st0" d="M149.6,107c-5.2-4.9-8.7-5.5-12.9-8.7c-12.9-9.4-16-29.2-6.1-42.1c2.8-3.7,6.4-6.3,10.3-8.9
			c4.1-2.7,7.9-6.7,9.8-10.8c4-8.7,2.8-19-3.1-26.6c-5.8-7.5-14.8-11.3-24.7-9.5c-4.6,0.8-8.6,2.8-12.5,6.3
			c-4.1,3.6-5.1,7.4-9.7,11.9c-7.3,7.2-16.2,10.8-26.6,10c-5.1-0.3-9.4-1.6-14.6-4.5c-5.5-3.1-7.7-6.9-12-7.8
			c-4.4-1-9.4,0.3-12.3,3.6c-4,4.6-3.5,8.9-1.7,14.5c1.7,5.2,3.1,10.3,3.3,15.8c0.3,5.4-0.4,10.9-1.9,16.1
			c-2.8,9.6-9.7,18.5-16.4,24.3c-5.5,4.8-9.4,5.6-12.9,9c-3.6,3.4-5.6,8-5.7,12.9c0,8.7,6.2,16.2,14.8,17.8
			c6.6,1.2,12.9-1.8,14.8-2.4c13.7-4.3,30.8-3.8,43.2-0.2c10.3,3,19.1,8.3,27.4,15c3.9,3.2,7,7.6,11.2,10.6
			c10.8,7.7,29.4,9.2,41.2-6.1C160.7,137.1,162.6,119.2,149.6,107"/>
		<path class="st1" d="M98.6,51.1c-2.9-0.1-5.4,2.2-5.5,5.1c0,0.1,0,0.2,0,0.3v4.3c-4.1-5.5-9.7-9.3-17.4-9.3
			c-6.2,0-11.5,2.5-15.9,7.5s-6.6,11.1-6.6,18.1s2.2,13.1,6.6,18.1s9.7,7.6,15.9,7.6c8.2,0,13.8-4.5,17.4-9.3v4.6
			c0.1,3,2.5,5.3,5.5,5.3c3.8,0,5.4-3.3,5.4-5.5V56.6C104,53.6,101.6,51.1,98.6,51.1 M78.6,92.9c-8.3,0-14.4-7.6-14.4-15.8
			c0-8.7,6.2-15.8,14.4-15.8c8.9,0,14.4,7.9,14.4,15.8C93,85.4,87.1,92.9,78.6,92.9"/>
		<path class="st2" d="M450.6,30.6c-9.1-3.6-15.8,3.3-17.5,7.7l-32.8,86l-32.8-86c-1.7-4.4-8.4-11.2-17.5-7.7
			c-9.8,3.9-9.3,13.1-7.7,17.2c0,0,27.3,71.7,36.2,94.9c5.1,13.3,15.1,16.1,21.8,16.2s16.7-2.8,21.8-16.2
			c8.8-23.2,36.2-94.9,36.2-94.9C459.9,43.7,460.4,34.5,450.6,30.6 M311.6,29.6c-9.9,0-13.7,7.8-13.7,13.5v10.5
			c-10.2-13.7-24-22.8-42.8-22.8c-15.4,0-28.5,6.2-39.3,18.6s-16.3,27.3-16.3,44.8s5.4,32.3,16.3,44.7s23.9,18.7,39.3,18.7
			c20.2,0,34.1-11,42.8-22.9V146c0.2,7.4,6.2,13.2,13.6,13.1c9.4,0,13.4-8.2,13.4-13.5V43.3C324.9,35.9,319,29.7,311.6,29.6
			 M262.1,133.1c-20.6,0-35.4-18.8-35.4-39c0-21.4,15.3-38.9,35.4-38.9c21.8,0,35.4,19.5,35.4,38.9
			C297.6,114.6,283,133.1,262.1,133.1 M576.6,29.6c-9.9,0-13.7,7.8-13.7,13.5v10.5c-10.2-13.7-24-22.8-42.8-22.8
			c-15.4,0-28.5,6.2-39.3,18.6c-10.8,12.4-16.3,27.3-16.3,44.8s5.4,32.3,16.3,44.7s23.9,18.7,39.3,18.7c20.2,0,34.1-11,42.8-22.9
			V146c0.2,7.4,6.2,13.2,13.6,13.1c9.4,0,13.4-8.2,13.4-13.5V43.3C589.9,35.9,584,29.8,576.6,29.6 M527.1,133.1
			c-20.6,0-35.4-18.8-35.4-39c0-21.4,15.3-38.9,35.4-38.9c21.8,0,35.4,19.5,35.4,38.9C562.5,114.6,547.9,133.1,527.1,133.1"/>
		<path class="st2" d="M612.5,143.9c-3.5-2-5.6-5.9-5.4-9.9c0-6.4,5.2-11.6,11.7-11.6c2.1,0,4.2,0.6,6,1.7c12,8,24.6,12,35.9,12
			c12.3,0,19.4-5.2,19.4-13.5v-0.5c0-9.7-13.2-12.5-27.9-17c-18.4-5.2-39-13.2-39-37.1v-0.5c0-23.6,19.6-38,44.4-38
			c13.7,0.2,27.1,3.7,39.2,10.2c4.2,2,6.9,6.2,6.9,10.9c0,6.4-5.1,11.6-11.5,11.6c-0.1,0-0.2,0-0.3,0c-2,0-3.9-0.5-5.7-1.4
			c-10.2-5.2-20.5-8.5-29.3-8.5c-11.1,0-17.5,5.2-17.5,12.3v0.5c0,9.2,13.5,12.5,28.1,17.2c18.2,5.7,38.7,14.4,38.7,36.9v0.5
			c0,26.2-20.3,39.2-46.3,39.2C642.9,158.7,626.4,153.5,612.5,143.9L612.5,143.9z M732.2,122.5V57.7h-5.4c-6.7,0-12.2-5.5-12.2-12.2
			c0-6.7,5.5-12.2,12.2-12.2l0,0h5.4V14.1c0-7.8,5.6-14.1,13.6-14.1c7.8,0,13.3,6.4,13.3,14.1v19.2h21.3c6.7,0,12.2,5.5,12.2,12.2
			c0,6.7-5.5,12.2-12.2,12.2h-21.3V118c0,11.1,6.5,15.5,16.1,15.5c2.4-0.1,4.7-0.3,7.1-0.7c6.6,0,11.9,5.3,12,11.8
			c-0.1,4.9-3,9.2-7.5,11.1c-6.3,2.2-12.9,3.4-19.6,3.3C746.3,159,732.2,149.8,732.2,122.5L732.2,122.5z"/>
	</g>
</g>
</svg>
