<?xml version="1.0" encoding="utf-8"?>
<!-- Generator: Adobe Illustrator 26.5.0, SVG Export Plug-In . SVG Version: 6.00 Build 0)  -->
<svg version="1.1" id="Layer_1" xmlns="http://www.w3.org/2000/svg" xmlns:xlink="http://www.w3.org/1999/xlink" x="0px" y="0px"
	 viewBox="0 0 691.5 157.8" style="enable-background:new 0 0 691.5 157.8;" xml:space="preserve">
<style type="text/css">
	.st0{fill:#E21D25;}
</style>
<g id="Layer_2_00000057146478749419188350000005116796466099746184_">
	<g id="svg8">
		<path id="path57" class="st0" d="M21.6,157.8c-33.2-40.7-27-97.6,10.5-132.6S128-7.9,164.3,27.2L102,84.2
			c0.3,0.4,45.4,49.6,45.4,49.6c1.7,2.1,4.2,3.4,6.8,3.5c4.9,0.2,9.1-3.6,9.2-8.6c0.1-2.1-0.6-4.1-1.8-5.8c-1.7-2.1-2.3-4.9-1.8-7.5
			c0.8-3.9,4.1-6.9,8.1-7.2c2.8-0.2,5.6,0.8,7.5,2.8c4.2,4.9,6.5,11.3,6.3,17.7c-0.1,13.4-11.3,26.4-26.4,26.6
			c-7.2,0.1-14.1-2.6-19.3-7.6L88.7,96.3L21.6,157.8z M25,131.8l24.8-22.7l0,0l89-81.5C68.8-13-11,64.9,25,131.8"/>
		<path id="path39" class="st0" d="M338.3,0h32.5l15.6,130.8L402,0h32.5l-27,157.8h-42.3L338.3,0z"/>
		<path id="path41" class="st0" d="M551.7,150.4v-48.6c0-4.2-1.2-7.3-3.5-9.4s-6-3.1-10.9-3.1c-0.8,0-1.5,0-2.3,0.1
			c-0.9,0.1-2.3,0.2-4.1,0.4v67.9h-30.1V-0.1h42.6c11.6,0,20.6,2.5,27.1,7.7s9.8,12.1,9.8,21.1v23c0,6.9-1.9,12.3-5.7,16.5
			s-9.2,6.4-16,6.8c8.2,0.7,14.2,3.3,18.1,7.9s5.8,11.4,5.8,20.5v46.4c0.1,1.6,0.6,3.2,1.5,4.5c0.7,1.3,1.7,2.5,2.7,3.5h-30.8
			c-1.3-0.7-2.4-1.7-3.2-2.9C552,153.5,551.7,152,551.7,150.4 M530.9,62.8c0.6,0.1,1.2,0.1,2,0.2h3.1c4.6,0,8-0.8,10.2-2.6
			s3.3-4.5,3.3-8.2V38c0-3.6-1.1-6.3-3.4-8s-5.7-2.6-10.3-2.6h-3c-0.6,0-1.3,0.1-1.9,0.2L530.9,62.8L530.9,62.8z"/>
		<path id="path43" class="st0" d="M245.9,157.8L272.9,0h42.3l27,157.8h-32.5l-3.5-27.7h-24.1l-3.5,27.7H245.9z M285.3,101.3h17.2
			L294,26.9L285.3,101.3z"/>
		<path id="path45" class="st0" d="M481.9,157.8h-31.8V0h31.8V157.8z"/>
		<path id="path55" class="st0" d="M595.2,157.8L622.2,0h42.3l27,157.8H659l-3.5-27.7h-24.1l-3.5,27.7H595.2z M634.6,101.3h17.2
			l-8.4-74.4L634.6,101.3z"/>
	</g>
</g>
</svg>
