<?xml version="1.0" encoding="utf-8"?>
<!-- Generator: Adobe Illustrator 26.5.0, SVG Export Plug-In . SVG Version: 6.00 Build 0)  -->
<svg version="1.1" id="Layer_1" xmlns="http://www.w3.org/2000/svg" xmlns:xlink="http://www.w3.org/1999/xlink" x="0px" y="0px"
	 viewBox="0 0 941.5 138" style="enable-background:new 0 0 941.5 138;" xml:space="preserve">
<g id="Layer_2_00000121962832249044940570000003880111837462098110_">
	<g id="svg8">
		<path d="M423.6,94.2c0-30-18.2-47-42.3-47c-26.1,0-45.1,18.2-45.1,45.4s20,45.3,48.9,45.3c7.9,0.1,15.8-1.4,23.1-4.3l12.3-20.5
			l-1.6-0.9c-10.6,5.5-21.7,8.4-31.8,8.4c-14.9,0-27.8-7.6-29.2-20.5h65.9L423.6,94.2L423.6,94.2z M357.8,84
			c1.6-12.4,9.5-20.5,22.3-20.5c13.5,0,21.8,7.9,22,20.5H357.8z M830,47.2c-26.1,0-45.1,18.2-45.1,45.4s20,45.3,48.9,45.3
			c7.9,0.1,15.7-1.4,23-4.3l12.3-20.5l-1.6-0.9c-10.6,5.5-21.7,8.4-31.8,8.4c-14.9,0-27.7-7.6-29.2-20.5h65.8
			C875.2,66.3,857,47.2,830,47.2z M806.4,84c1.6-12.4,9.5-20.5,22.3-20.5c13.5,0,21.8,7.9,22,20.5H806.4z M528.2,47.2
			c-26.1,0-45.1,18.2-45.1,45.4s20,45.3,48.9,45.3c7.9,0.1,15.8-1.4,23.1-4.3l12.3-20.5l-1.6-0.9c-10.6,5.5-21.7,8.4-31.8,8.4
			c-14.9,0-27.8-7.6-29.2-20.5h65.9C573.4,66.3,555.2,47.2,528.2,47.2z M504.7,84c1.6-12.4,9.5-20.5,22.3-20.5
			c13.5,0,21.8,7.9,22,20.5H504.7z M82,68.7v-0.4c13.1-4,22.1-13.5,22.1-27.9c0-23.2-19.8-32-39-32H0v1.9l6.5,5.6
			c7.9,6.4,8.9,7.6,8.9,13.4v106.6h45.9c24.1,0,48.2-8.6,48.2-36.4C109.5,83.1,98,70.5,82,68.7z M38.1,27.8h18.7
			c12.7,0,16.6,1.7,20.4,5.4c2.9,2.8,4.2,6.6,4.3,11c0.1,4-1.5,7.9-4.4,10.6c-3.7,3.6-8.9,5.4-18.3,5.4H38.1V27.8z M59,116.3H38.1
			V79.6h21.8c18.4,0,27,4.7,27,18C86.9,114.4,70.6,116.3,59,116.3z M152.4,20.1c0,7.4-6.1,13-14,13s-13.7-6.1-13.7-13
			s5.7-13,13.7-13S152.4,12.7,152.4,20.1z M116.1,49.4h33.2v86.4h-21.6v-68l0,0c0-7.1-0.4-8.3-8.1-14.3l-3.4-2.7L116.1,49.4z M288,3
			v1.6l6.8,4.4c6.2,3.9,7.1,5.8,7.1,11.3v40.1h-0.5c-4.5-5.6-13.1-13.1-29.3-13.1c-24.7,0-41.8,19.8-41.8,45.4s16,45.3,42.7,45.3
			c12.1,0,23.4-4.7,29.7-15.1h0.4l2.3,12.9h18.3V3H288z M277.2,118.5c-15.8,0-25.4-12.4-25.4-25.9s9.6-25.9,25.4-25.9
			s25.4,12.4,25.4,25.9S293.1,118.5,277.2,118.5z M736,3v1.6l3,2c10.4,6.6,11.7,8.5,11.7,19.7v34h-0.5c-4.5-5.6-13.1-13.1-29.3-13.1
			c-24.7,0-41.8,19.8-41.8,45.4s16,45.3,42.6,45.3c12.1,0,23.4-4.7,29.7-15.1h0.4l2.3,12.9h18.2V3H736z M726,118.5
			c-15.8,0-25.4-12.4-25.4-25.9s9.5-25.9,25.4-25.9s25.4,12.4,25.4,25.9S741.8,118.5,726,118.5z M941.5,48.5v20.9
			c-3.4-1-6.9-1.5-10.4-1.6c-20.3,0-23.2,17.1-23.2,21.8v46.2h-21.6V72c0-10.9-0.6-12.5-9.4-18.1l-5.4-3.6l-0.1-0.9h36.4v13.7h0.4
			c4.7-9.9,14.2-15.8,25.5-15.8C936.3,47.3,939,47.7,941.5,48.5z M462,49.1h20.1v18.4H462v68.3h-21.7V74.9c0-7.2-1.5-8.8-10-15.6
			l-11-8.9v-1.3h21.1V33.3c0-23.4,15.3-38.3,48.4-31.7l5,18.3l-1,0.8c-17.3-6.8-30.7-2.4-30.7,12.6L462,49.1z M666.7,81.2v54.6
			h-21.6V87.7c0-9.5-2.4-21-17.5-21c-14.2,0-19.8,10.4-19.8,22v47.2h-21.6V72c0-10.9-0.6-12.5-9.4-18.1l-5.4-3.6v-0.9h16.9v0.1h18.4
			v13.2h0.4c7.1-10.6,17.9-15.3,27.5-15.3C654.9,47.2,666.7,61.2,666.7,81.2z M223.6,118.4l0.7,0.4L213.6,136
			c-17.6,4.8-37.4-0.3-37.4-28.5V72.4c0-5.6-0.9-5.3-13-15.3l-7.8-6.8v-1h21l7.9-25H198v25h23.1v18.3H198v39.2
			C197.9,122.5,208.5,122.9,223.6,118.4z"/>
	</g>
</g>
</svg>
