<?xml version="1.0" encoding="utf-8"?>
<!-- Generator: Adobe Illustrator 26.5.0, SVG Export Plug-In . SVG Version: 6.00 Build 0)  -->
<svg version="1.1" id="Layer_1" xmlns="http://www.w3.org/2000/svg" xmlns:xlink="http://www.w3.org/1999/xlink" x="0px" y="0px"
	 viewBox="0 0 615 230.6" style="enable-background:new 0 0 615 230.6;" xml:space="preserve">
<style type="text/css">
	.st0{clip-path:url(#SVGID_00000152979119443886401330000001916604606906254482_);}
	.st1{fill:#0094A1;}
	.st2{clip-path:url(#SVGID_00000051385183206501455170000018099241917866515100_);}
	.st3{fill:#FFFFFF;}
</style>
<g id="Layer_2_00000181776969089176604590000010613566515954314650_">
	<g id="svg8">
		<g>
			<defs>
				<rect id="SVGID_1_" y="-12.5" width="615.1" height="243"/>
			</defs>
			<clipPath id="SVGID_00000163781783358227770290000016265826313184041906_">
				<use xlink:href="#SVGID_1_"  style="overflow:visible;"/>
			</clipPath>
		</g>
		<g>
			<defs>
				<rect id="SVGID_00000096044926801604493600000015095011464398047423_" y="-12.5" width="615.1" height="243"/>
			</defs>
			<clipPath id="SVGID_00000059303334093368616490000001531920781787269274_">
				<use xlink:href="#SVGID_00000096044926801604493600000015095011464398047423_"  style="overflow:visible;"/>
			</clipPath>
			<g style="clip-path:url(#SVGID_00000059303334093368616490000001531920781787269274_);">
				<path class="st1" d="M84.8,0C54.4,0,28.4,15.9,14.5,38.2C2.7,59.2,0,93,0,115.3s2.7,56.4,14.5,77.1
					C28,214.7,54,230.6,84.8,230.6h445.4c30.4,0,56.4-15.9,70.3-38.2c11.8-20.6,14.5-54.8,14.5-77.1s-2.7-56.4-14.5-77.1
					C587,15.9,561,0,530.2,0H84.8z"/>
			</g>
		</g>
		<g>
			<defs>
				<rect id="SVGID_00000007402603428835081860000009237364825041511328_" y="-12.5" width="615.1" height="243"/>
			</defs>
			<clipPath id="SVGID_00000057146291920769602110000015828455119758585255_">
				<use xlink:href="#SVGID_00000007402603428835081860000009237364825041511328_"  style="overflow:visible;"/>
			</clipPath>
			<g style="clip-path:url(#SVGID_00000057146291920769602110000015828455119758585255_);">
				<path class="st3" d="M381.2,102.7h37.5v-1c0-17.2-6.8-18.3-19.3-18.3C384.3,83.1,381.6,87.9,381.2,102.7 M118,84.2
					c12.2,0,18.9,1.4,18.9,17.9v0.7H100C100.4,88.6,103.4,84.2,118,84.2 M65.9,115.9c0,40.2,10.1,54.8,52.7,54.8
					c15.9,0,28.7-1.4,38.2-6.4c8.8-5.1,14.2-13.9,14.2-29.7h-33.5c-0.3,11.5-8.1,12.8-18.9,12.8c-15.5,0-18.6-6.4-18.6-25.7V121h71
					v-5.1c0-43.9-11.8-55.1-52.4-55.1C75.4,60.8,65.9,74.4,65.9,115.9 M193.7,96c0,21.6,7.4,31.4,52.7,31.4c4.1,0,10.5-0.3,14.2,1.4
					c3.4,1.7,5.1,4.7,5.1,10.1c0,9.5-3.4,10.5-19.6,10.5c-8.8,0-17.9-0.3-18.6-12.2h-33.8c0.3,23.7,11.5,31.4,32.4,33.1
					c6.4,0.3,13.2,0.3,20.3,0.3c28.7,0,52.7-4.7,52.7-35.8c0-29.7-15.5-31.8-52.7-32.8c-18.6-0.3-19.6-4.4-19.6-10.5
					c0-7.1,0.7-9.5,19.6-9.5c6.8,0,13.9,0.7,15.2,9.1h32.1v-4.4c0-25.7-27-26-47.3-26C215.6,60.8,193.7,61.5,193.7,96 M473.5,60.8
					h83.8v24.7h-25v84.2h-34.1V85.5h-25V60.8H473.5z M347.8,115.3c0-41.6,9.1-54.8,52.4-54.8c40.2,0,52,10.8,52,54.8v4.7h-71v1
					c0,19.3,3,26,18.9,26c10.5,0,18.6-1,19.3-12.8h32.8c-0.3,15.2-5.4,24-14.2,29.1c-9.1,5.1-22,6.4-37.9,6.4
					C357.9,169.7,347.8,155.5,347.8,115.3 M41.2,189.9c-17.2-18.6-21-47.3-21-74.7s3.7-56.1,21-74.7C52,29,73,20.2,90.5,20.2H320
					v189.9H90.6C72.7,210.2,52,201.4,41.2,189.9"/>
			</g>
		</g>
	</g>
</g>
</svg>
