<?xml version="1.0" encoding="UTF-8"?>
<svg id="Layer_1" xmlns="http://www.w3.org/2000/svg" xmlns:xlink="http://www.w3.org/1999/xlink" version="1.1" viewBox="0 0 137.5 25">
  <!-- Generator: Adobe Illustrator 29.1.0, SVG Export Plug-In . SVG Version: 2.1.0 Build 142)  -->
  <defs>
    <style>
      .st0 {
        fill: none;
      }

      .st1 {
        fill: #071d2b;
      }

      .st2 {
        fill: #1758ff;
        fill-rule: evenodd;
      }

      .st3 {
        clip-path: url(#clippath);
      }
    </style>
    <clipPath id="clippath">
      <rect class="st0" x="-22.5" y="-8.7" width="159.7" height="44"/>
    </clipPath>
  </defs>
  <g class="st3">
    <g>
      <path class="st2" d="M8.1,8.3c2.5-.3,5.1-.3,7.6,0,.3,0,.6-.2.6-.5,0-.3-.2-.6-.5-.6-2.8-.4-5.6-.4-8.4,0h-.5v.6c.2,3.4,1.6,6.5,4.4,8.9.2.2.6.2.8,0,.2-.2.2-.6,0-.8-2.4-2.1-3.7-4.7-4-7.5h-.1Z"/>
      <path class="st2" d="M3.7,3.5c0,.3-.1.6-.4.6-.7.2-1.5.3-2.2.6-.2,9.5,4.1,15.9,10.7,19.1,1.8-.9,3.5-2,5-3.5.2-.2.6-.2.8,0s.2.6,0,.8c-1.6,1.6-3.5,2.8-5.5,3.7h-.2c0,.1-.2,0-.2,0C4.3,21.6-.3,14.6,0,4.3v-.4h.4c.9-.4,1.8-.6,2.7-.9.3,0,.6.1.6.4h-.1Z"/>
      <path class="st2" d="M18.9,1.1c0-.3.3-.5.6-.5,1.2.2,2.4.5,3.6.8h.4v.5c.5,8.1-1.2,13.7-4.4,17.6-.2.2-.5.3-.7,0-.2-.2-.3-.5,0-.7,2.9-3.6,4.6-8.7,4.2-16.5-1-.3-2.1-.5-3.1-.7-.3,0-.5-.3-.5-.6h0Z"/>
      <path class="st2" d="M17.1,1.4c-6.3-.7-12.3,0-16.3,1.2-.3.1-.6,0-.7-.3-.1-.3,0-.6.3-.7C4.6.2,10.8-.4,17.2.3c.3,0,.5.3.5.6,0,.3-.3.5-.6.5h0Z"/>
      <path class="st2" d="M3.4,6.4c2.5-.5,5.4-.8,8.6-.8s.6-.2.6-.6-.2-.6-.6-.6c-3.4,0-6.6.3-9.3.9h-.5v.6c0,4.2,1.1,7.7,2.9,10.5.2.2.5.3.7.2.2-.2.3-.5.2-.7-1.6-2.5-2.6-5.7-2.7-9.5h0Z"/>
      <path class="st2" d="M20.5,8.8c.3,0,.5.3.5.6-1,6.3-4,10.2-8.9,12.9h-.2c0,.1-.2,0-.2,0-1.9-1-3.6-2.3-5.1-4-.2-.2-.2-.6,0-.8.2-.2.6-.2.8,0,1.2,1.5,2.8,2.7,4.5,3.6,4.4-2.5,7.1-6.1,8.1-12,0-.3.3-.5.6-.5h-.1Z"/>
      <path class="st2" d="M5.5,2.7c4.5-.6,9.9-.6,15.4.5h.5v.6c0,1.2,0,2.3-.1,3.3,0,.3-.3.5-.6.5s-.5-.3-.5-.6c0-.9.1-1.9.1-2.8-5.2-1-10.3-1-14.6-.4-.3,0-.6-.2-.6-.5,0-.3.2-.6.5-.6h0Z"/>
      <path class="st2" d="M13.7,5.1c0-.3.3-.5.6-.5,1.4,0,2.8.2,4.1.4h.5v.5c.3,7.5-2.9,11.9-6.8,14.1l-.3.2-.3-.2c-3.8-2.2-6.4-6.1-6.8-11.5,0-.3.2-.6.5-.6s.6.2.6.5c.3,5,2.6,8.5,5.9,10.5,3.3-2,6.1-5.8,6-12.5-1.2-.2-2.4-.3-3.6-.3-.3,0-.5-.3-.5-.6h.1Z"/>
      <path class="st2" d="M10.3,11.5c0-.3.2-.6.6-.6h2.2c.3,0,.6.2.6.6s-.2.6-.6.6h-2.2c-.3,0-.6-.2-.6-.6Z"/>
      <path class="st1" d="M46.9,2.2v1.8h-9.6v8.2h8.1v1.8h-8.1v10.1h-2.2V2.2h11.8Z"/>
      <path class="st1" d="M56.9,24.3c-1.6,0-3.1-.4-4.4-1.1-1.3-.7-2.3-1.8-3-3.1-.7-1.3-1.1-2.9-1.1-4.7s.4-3.3,1.1-4.6c.8-1.3,1.8-2.4,3.1-3.1,1.3-.7,2.7-1.1,4.4-1.1s3.1.4,4.4,1.1,2.3,1.7,3.1,3.1c.8,1.3,1.1,2.9,1.1,4.6s-.4,3.3-1.1,4.6c-.8,1.3-1.8,2.4-3.1,3.1-1.3.7-2.8,1.1-4.4,1.1h0ZM56.9,22.4c1.1,0,2.2-.3,3.1-.8,1-.5,1.7-1.3,2.3-2.3.6-1,.9-2.3.9-3.8s-.3-2.8-.9-3.8-1.4-1.8-2.3-2.3c-1-.5-2-.8-3.1-.8s-2.2.3-3.1.8c-1,.5-1.7,1.3-2.3,2.3-.6,1-.8,2.3-.8,3.8s.3,2.8.8,3.8c.6,1,1.3,1.8,2.3,2.3s2,.8,3.1.8Z"/>
      <path class="st1" d="M71.1,10c.5-1.1,1.2-1.9,2.2-2.5s2.2-.9,3.7-.9v2.3h-.6c-1.6,0-2.9.4-3.8,1.3-1,.9-1.4,2.3-1.4,4.3v9.6h-2.2V7h2.2v3h0Z"/>
      <path class="st1" d="M83.8,8.8v10.6c0,1,.2,1.8.6,2.2.4.4,1.1.6,2.1.6h2v1.9h-2.4c-1.5,0-2.7-.4-3.4-1.1-.8-.7-1.1-1.9-1.1-3.6v-10.6h-2.4v-1.8h2.4V2.7h2.2v4.3h4.7v1.8s-4.7,0-4.7,0Z"/>
      <path class="st1" d="M107.4,14.7v1.7h-14.2c0,1.3.4,2.4.9,3.3.6.9,1.3,1.6,2.2,2.1.9.5,1.9.7,3,.7s2.6-.3,3.6-1,1.6-1.6,1.9-2.8h2.3c-.4,1.7-1.3,3-2.7,4.1-1.4,1-3.1,1.6-5.1,1.6s-3-.4-4.3-1.1c-1.3-.7-2.3-1.8-3-3.1-.7-1.3-1.1-2.9-1.1-4.7s.4-3.3,1.1-4.7c.7-1.3,1.7-2.4,3-3.1,1.3-.7,2.7-1.1,4.4-1.1s3,.4,4.3,1.1c1.2.7,2.2,1.7,2.8,2.9.7,1.2,1,2.5,1,4h-.1ZM105.2,14.6c0-1.3-.2-2.4-.8-3.3-.5-.9-1.2-1.6-2.2-2-.9-.5-1.9-.7-3-.7-1.6,0-3,.5-4.2,1.6-1.1,1-1.8,2.5-1.9,4.4h12.1Z"/>
      <path class="st1" d="M109.8,15.5c0-1.8.4-3.3,1.1-4.6.7-1.3,1.7-2.4,2.9-3.1,1.3-.7,2.7-1.1,4.3-1.1s3.8.5,5.2,1.6c1.4,1,2.3,2.5,2.7,4.3h-2.3c-.3-1.2-.9-2.2-1.9-2.9-1-.7-2.2-1.1-3.6-1.1s-2.2.3-3.1.8c-.9.5-1.6,1.3-2.2,2.3-.5,1-.8,2.3-.8,3.8s.3,2.8.8,3.8,1.3,1.8,2.2,2.3,2,.8,3.1.8,2.6-.3,3.6-1,1.6-1.7,1.9-2.9h2.3c-.4,1.8-1.3,3.2-2.7,4.2-1.4,1.1-3.1,1.6-5.2,1.6s-3-.4-4.3-1.1c-1.3-.7-2.2-1.8-2.9-3.1-.7-1.3-1.1-2.9-1.1-4.7h0Z"/>
      <path class="st1" d="M132.3,8.8v10.6c0,1,.2,1.8.6,2.2.4.4,1.1.6,2.1.6h2v1.9h-2.3c-1.5,0-2.7-.4-3.4-1.1-.8-.7-1.1-1.9-1.1-3.6v-10.6h-2.4v-1.8h2.4V2.7h2.2v4.3h4.7v1.8h-4.8Z"/>
    </g>
  </g>
</svg>