<?xml version="1.0" encoding="utf-8"?>
<!-- Generator: Adobe Illustrator 26.5.0, SVG Export Plug-In . SVG Version: 6.00 Build 0)  -->
<svg version="1.1" id="Layer_1" xmlns="http://www.w3.org/2000/svg" xmlns:xlink="http://www.w3.org/1999/xlink" x="0px" y="0px"
	 viewBox="0 0 145.9 26.4" style="enable-background:new 0 0 145.9 26.4;" xml:space="preserve">
<style type="text/css">
	.st0{fill-rule:evenodd;clip-rule:evenodd;fill:#242424;}
	.st1{fill-rule:evenodd;clip-rule:evenodd;fill:#FFE01A;}
</style>
<g id="logo_norton_d">
	<g id="Norton_WBG_Horizontal">
		<path id="Combined-Shape" class="st0" d="M65.1,5.6c2,0,3.7,0.4,5.3,1.2c1.6,0.8,2.8,1.9,3.7,3.5c0.9,1.5,1.3,3.3,1.3,5.4v0.6
			c0,2.1-0.4,3.9-1.3,5.4c-0.9,1.5-2.1,2.7-3.7,3.5c-1.6,0.8-3.3,1.2-5.3,1.2c-2,0-3.7-0.4-5.3-1.2c-1.6-0.8-2.8-1.9-3.7-3.5
			c-0.9-1.5-1.3-3.3-1.3-5.4v-0.6c0-2.1,0.4-3.9,1.3-5.4c0.9-1.5,2.1-2.7,3.7-3.5C61.4,6,63.1,5.6,65.1,5.6z M114,5.6
			c2,0,3.7,0.4,5.3,1.2c1.6,0.8,2.8,1.9,3.7,3.5c0.9,1.5,1.3,3.3,1.3,5.4v0.6c0,2.1-0.4,3.9-1.3,5.4c-0.9,1.5-2.1,2.7-3.7,3.5
			c-1.6,0.8-3.3,1.2-5.3,1.2c-2,0-3.7-0.4-5.3-1.2c-1.6-0.8-2.8-1.9-3.7-3.5c-0.9-1.5-1.3-3.3-1.3-5.4v-0.6c0-2.1,0.4-3.9,1.3-5.4
			c0.9-1.5,2.1-2.7,3.7-3.5C110.3,6,112,5.6,114,5.6z M44.5,5.8c1.5,0,2.9,0.4,4,1.1c1.1,0.7,2,1.7,2.7,2.9c0.6,1.2,1,2.7,1,4.3
			v11.7h-5V14.4c0-1.5-0.4-2.6-1.1-3.3C45.4,10.4,44.3,10,43,10c-1.5,0-2.7,0.5-3.6,1.5c-0.8,1-1.3,2.4-1.3,4.3v10h-5V6.1h4.9v2.6
			h0.7c0.3-0.7,0.9-1.3,1.8-2C41.4,6.1,42.8,5.8,44.5,5.8z M97.4,0v6.1h5.4v4.1h-5.4v10.2c0,0.8,0.4,1.2,1.1,1.2h3.8v4.1h-5.5
			c-1.3,0-2.3-0.4-3.1-1.2c-0.8-0.8-1.2-1.9-1.2-3.2V10.2h-5.1c-1.4,0-2.3,0.6-3.1,1.3c-0.8,0.7-1.2,1.7-1.2,3.1v11.2h-5V6.1h4.9
			v2.2h0.7c0.3-0.8,0.8-1.3,1.5-1.7c0.7-0.4,1.4-0.5,2.3-0.5h5V0H97.4z M138.3,5.8c1.5,0,2.9,0.4,4,1.1c1.1,0.7,2,1.7,2.7,2.9
			c0.6,1.2,1,2.7,1,4.3v11.7h-5V14.4c0-1.5-0.4-2.6-1.1-3.3c-0.7-0.7-1.8-1.1-3.1-1.1c-1.5,0-2.7,0.5-3.6,1.5
			c-0.8,1-1.3,2.4-1.3,4.3v10h-5V6.1h4.9v2.6h0.7c0.3-0.7,0.9-1.3,1.8-2C135.2,6.1,136.5,5.8,138.3,5.8z M65.1,10
			c-1.5,0-2.8,0.5-3.8,1.5c-1,1-1.5,2.4-1.5,4.3v0.4c0,1.9,0.5,3.3,1.5,4.3c1,1,2.3,1.5,3.8,1.5c1.5,0,2.8-0.5,3.8-1.5
			c1-1,1.5-2.4,1.5-4.3v-0.4c0-1.9-0.5-3.3-1.5-4.3C67.9,10.5,66.6,10,65.1,10z M114,10c-1.5,0-2.8,0.5-3.8,1.5
			c-1,1-1.5,2.4-1.5,4.3v0.4c0,1.9,0.5,3.3,1.5,4.3c1,1,2.3,1.5,3.8,1.5c1.5,0,2.8-0.5,3.8-1.5c1-1,1.5-2.4,1.5-4.3v-0.4
			c0-1.9-0.5-3.3-1.5-4.3C116.8,10.5,115.5,10,114,10z"/>
		<path id="Fill-13" class="st1" d="M25.7,12.9c0,7.1-5.8,12.9-12.9,12.9C5.8,25.8,0,20,0,12.9C0,5.8,5.8,0,12.9,0
			c2,0,3.8,0.4,5.5,1.2L16.2,4c-1-0.4-2.2-0.6-3.4-0.6c-5,0-9.1,3.9-9.5,8.8c0,0.1,0,0.2,0,0.3c0,0.1,0,0.3,0,0.4
			c0,5.2,4.3,9.5,9.5,9.5c5.2,0,9.5-4.3,9.5-9.5c0-0.7-0.1-1.4-0.2-2l2.5-3.2C25.4,9.3,25.7,11,25.7,12.9"/>
		<path id="Fill-16" class="st0" d="M23.1,5.1L21,7.9l-7.6,9.8l-6.2-5.6l2.2-2.5l3.5,3.1l5.8-7.4l2.1-2.7
			C21.6,3.4,22.4,4.2,23.1,5.1"/>
	</g>
</g>
</svg>
