<?xml version="1.0" encoding="utf-8"?>
<!-- Generator: Adobe Illustrator 26.5.0, SVG Export Plug-In . SVG Version: 6.00 Build 0)  -->
<svg version="1.1" id="Layer_1" xmlns="http://www.w3.org/2000/svg" xmlns:xlink="http://www.w3.org/1999/xlink" x="0px" y="0px"
	 viewBox="0 0 812.5 195.3" style="enable-background:new 0 0 812.5 195.3;" xml:space="preserve">
<style type="text/css">
	.st0{fill:#0868B2;}
	.st1{fill:#7BB1E0;}
	.st2{fill:#5588C7;}
	.st3{fill:#272A67;}
</style>
<g id="Layer_2_00000051355440037882930940000006358935506858766745_">
	<g id="svg8">
		<g id="layer1">
			<g id="g3951">
				<path id="path2996" class="st0" d="M299.9,48.8c-6,0.2-11.9,1-17.7,2.2h-30.7v143.7l37.6,0.6V147
					C359.7,167.7,381.4,46.3,299.9,48.8z M303.6,79.2c10.1,0,18.2,8.1,18.2,18.2s-8.1,18.2-18.2,18.2s-18.2-8.1-18.2-18.2
					C285.4,87.4,293.6,79.2,303.6,79.2z"/>
				<path id="path2998" class="st0" d="M663.5,0v48.8c-85-15.6-93.2,121.8,3.7,95.5h32.9V0H663.5z M763.9,46
					c-73-0.1-78.6,122.8,18.9,100.4l29.7,1.1l-1-99.2l-27.6,0.6C777.4,47,770.7,46,763.9,46z M533.7,46.9c-6.4,0-12.8,0.9-19,2.8
					l-30.4,1.9v93.3h36.6V98.4c-0.3-24.3,31.3-20.9,30.3,0v46.5h36.6v-53C584.4,64,560.7,47,533.7,46.9z M414.7,47.5
					c-72.1,0.5-64,122.7,21.3,98.5h32.4V51.6h-28.7C431.7,48.9,423.2,47.5,414.7,47.5z M415.8,79.9c10.1,0,18.3,8.1,18.3,18.2
					s-8.1,18.3-18.2,18.3s-18.3-8.1-18.3-18.2v-0.1c0-10,8.1-18.2,18.1-18.2C415.8,79.9,415.8,79.9,415.8,79.9L415.8,79.9z
					 M649.2,81.1c10.1,0,18.2,8.1,18.2,18.2s-8.1,18.2-18.2,18.2c-10.1,0-18.2-8.1-18.2-18.2C631,89.3,639.2,81.1,649.2,81.1z
					 M760.5,81.1c10.1,0,18.2,8.1,18.2,18.2s-8.1,18.2-18.2,18.2c-10.1,0-18.2-8.1-18.2-18.2C742.3,89.3,750.5,81.1,760.5,81.1z"/>
				<path id="path3004-1" class="st0" d="M55.2,27.7c0,15.2-12.4,27.6-27.6,27.6S0,42.9,0,27.7C0,12.4,12.4,0.1,27.6,0.1l0,0
					C42.8,0.1,55.2,12.4,55.2,27.7z"/>
				<path id="path3004" class="st1" d="M108.8,0C55.4,0,12.1,43.3,12.1,96.6l0,0v0.8h55.4c0-0.6-0.1-1.1-0.1-1.7
					c0-22.9,18.4-41.5,41.4-41.8V0z"/>
				<path id="path3004-1-7" class="st0" d="M219.2,28.4c0,15.2-12.4,27.6-27.6,27.6S164,43.7,164,28.4s12.4-27.6,27.6-27.6
					S219.2,13.2,219.2,28.4z"/>
				<path id="path3004-5" class="st2" d="M108.9,0c53.4,0,96.6,43.3,96.6,96.6l0,0v0.8h-55.4c0-0.6,0.1-1.1,0.1-1.7
					c0-22.9-18.4-41.5-41.4-41.8L108.9,0L108.9,0z"/>
				<path id="path3004-51" class="st3" d="M108.8,195.3c-53.4,0-96.6-43.3-96.6-96.6l0,0v-0.8h55.4c0,0.6-0.1,1.1-0.1,1.7
					c0,22.9,18.4,41.5,41.4,41.8v53.9H108.8z"/>
				<path id="path3004-5-7" class="st0" d="M108.9,195.3c53.4,0,96.6-43.3,96.6-96.6l0,0v-0.8h-55.4c0,0.6,0.1,1.1,0.1,1.7
					c0,22.9-18.4,41.5-41.4,41.8L108.9,195.3L108.9,195.3z"/>
			</g>
		</g>
	</g>
</g>
</svg>
