<?xml version="1.0" encoding="utf-8"?>
<!-- Generator: Adobe Illustrator 27.1.1, SVG Export Plug-In . SVG Version: 6.00 Build 0)  -->
<svg version="1.1" id="Layer_1" xmlns="http://www.w3.org/2000/svg" xmlns:xlink="http://www.w3.org/1999/xlink" x="0px" y="0px"
	 viewBox="0 0 755.5 117.2" style="enable-background:new 0 0 755.5 117.2;" xml:space="preserve">
<style type="text/css">
	.st0{fill:#504847;}
	.st1{fill:#E73848;}
	.st2{fill:#C52A34;}
</style>
<g id="Layer_2_00000140727976749270389950000011928599316157407423_">
	<g id="svg8">
		<path class="st0" d="M175.9,31.4H150V9.7h77.6v21.6h-25.9v76.1h-25.9L175.9,31.4L175.9,31.4z"/>
		<path class="st0" d="M233.4,58.2c0-32.2,18.3-50.2,45.4-50.2s45.4,18.3,45.4,50.2c0,32.2-18.3,51.2-45.4,51.2
			S233.4,90.5,233.4,58.2z M297.7,58.2c0-17.6-7.3-28-18.9-28c-11.9,0-18.9,10.3-18.9,28s7.3,28.9,18.9,28.9
			C290.4,87.1,297.7,75.9,297.7,58.2z"/>
		<path class="st0" d="M357.4,31.4h-25.9V9.7h77.6v21.6h-25.9v76.1h-25.9L357.4,31.4L357.4,31.4z"/>
		<path class="st0" d="M464,86.8h-27.4l-4.9,20.7h-26.5l29.8-97.8h31.4l29.8,97.8h-27.4L464,86.8z M459.1,66.7l-1.6-6.7
			c-2.4-9.5-4.9-21.3-7.3-31h-0.6c-2.2,10.1-4.6,21.6-7,31l-1.6,6.7H459.1z"/>
		<path class="st0" d="M505.4,9.7h25.9v76.1h37.1v21.6h-63V9.7z"/>
		<path class="st0" d="M648.8,77.1h-36.5l-9.7,30.4h-12.8l33.8-99.9h14.3l33.8,99.9h-13.4L648.8,77.1z M645.5,66.7l-4.6-15.2
			c-3.7-11.3-7-22.2-10.1-33.8h-0.6c-3,11.6-6.4,22.5-9.7,33.8l-4.9,15.2H645.5z"/>
		<path class="st0" d="M676.2,7.7H690l16.2,53.9c3.7,11.9,5.8,21.3,9.7,33.2h0.6c3.7-11.9,6.1-21.3,9.7-33.2l16.2-53.9h13.1
			l-31.6,99.9h-14.9L676.2,7.7z"/>
		<path class="st1" d="M56.9,76.2h-8.7V60.9c-7.1-4.8-9.1-14.4-4.3-21.5c2.9-4.3,7.8-6.9,13-6.9c7.9,0,0-32.1,0-32.1L0,24.7
			c0,0,1.8,71.5,56.9,92.3C66,90.5,56.9,76.2,56.9,76.2z"/>
		<path class="st2" d="M56.9,0v32.1c8.6,0,15.6,6.9,15.6,15.5v0.1c0,5.2-2.6,10-6.9,12.9v15.3h-8.7v40.8
			c55.1-20.8,56.9-92.3,56.9-92.3L56.9,0z"/>
	</g>
</g>
</svg>
