<?xml version="1.0" encoding="utf-8"?>
<!-- Generator: Adobe Illustrator 25.4.2, SVG Export Plug-In . SVG Version: 6.00 Build 0)  -->
<svg version="1.1" id="Layer_1" xmlns="http://www.w3.org/2000/svg" xmlns:xlink="http://www.w3.org/1999/xlink" x="0px" y="0px"
	 viewBox="0 0 22.76 30" style="enable-background:new 0 0 22.76 30;" xml:space="preserve">
<style type="text/css">
	.st0{fill:#010101;}
</style>
<g>
	<g>
		<path class="st0" d="M1.32,11.27c-0.09,0-0.18,0.01-0.26,0.03c-0.08,0.02-0.16,0.04-0.24,0.07c-0.08,0.03-0.15,0.07-0.22,0.12
			s-0.13,0.1-0.19,0.16s-0.11,0.12-0.16,0.19c-0.05,0.07-0.09,0.14-0.12,0.22s-0.06,0.16-0.07,0.24c-0.02,0.08-0.03,0.17-0.03,0.26
			v0.78v0.78v0.78v0.78v0.78v0.78v0.78v0.78c0,0.09,0.01,0.17,0.03,0.26c0.02,0.08,0.04,0.16,0.07,0.24
			c0.03,0.08,0.07,0.15,0.12,0.22c0.05,0.07,0.1,0.13,0.16,0.19c0.06,0.06,0.12,0.11,0.19,0.16c0.07,0.05,0.14,0.09,0.22,0.12
			s0.16,0.06,0.24,0.08c0.08,0.02,0.17,0.03,0.26,0.03c0.09,0,0.18-0.01,0.26-0.03c0.08-0.02,0.16-0.04,0.24-0.08
			c0.08-0.03,0.15-0.07,0.22-0.12c0.07-0.05,0.13-0.1,0.19-0.16c0.06-0.06,0.11-0.12,0.16-0.19c0.05-0.07,0.09-0.14,0.12-0.22
			c0.03-0.08,0.06-0.16,0.07-0.24c0.02-0.08,0.03-0.17,0.03-0.26v-0.78v-0.78v-0.78v-0.78v-0.78V14.1v-0.78v-0.78
			c0-0.09-0.01-0.18-0.03-0.26c-0.02-0.08-0.04-0.16-0.07-0.24s-0.07-0.15-0.12-0.22c-0.05-0.07-0.1-0.13-0.16-0.19
			c-0.06-0.06-0.12-0.11-0.19-0.16c-0.07-0.05-0.14-0.09-0.22-0.12c-0.08-0.03-0.16-0.06-0.24-0.07
			C1.49,11.28,1.41,11.27,1.32,11.27z"/>
		<path class="st0" d="M1.32,20.08c-0.09,0-0.18-0.01-0.27-0.03c-0.08-0.02-0.17-0.04-0.25-0.08c-0.08-0.03-0.15-0.07-0.22-0.12
			c-0.07-0.05-0.14-0.1-0.2-0.16c-0.06-0.06-0.11-0.13-0.16-0.2c-0.05-0.07-0.09-0.15-0.12-0.22c-0.03-0.08-0.06-0.16-0.08-0.25
			C0.01,18.94,0,18.85,0,18.76v-6.21c0-0.09,0.01-0.18,0.03-0.27c0.02-0.08,0.04-0.17,0.08-0.25c0.03-0.08,0.07-0.15,0.12-0.22
			c0.05-0.07,0.1-0.13,0.16-0.19c0.06-0.06,0.13-0.11,0.2-0.16c0.07-0.05,0.15-0.09,0.22-0.12c0.08-0.03,0.16-0.06,0.25-0.08
			c0.17-0.04,0.36-0.04,0.53,0c0.08,0.02,0.17,0.04,0.25,0.08c0.08,0.03,0.15,0.07,0.22,0.12c0.07,0.05,0.14,0.1,0.19,0.16
			c0.06,0.06,0.11,0.12,0.16,0.19c0.05,0.07,0.09,0.15,0.12,0.22c0.03,0.08,0.06,0.16,0.08,0.25c0.02,0.09,0.03,0.18,0.03,0.27v6.21
			c0,0.09-0.01,0.18-0.03,0.26c-0.02,0.08-0.04,0.17-0.08,0.25c-0.03,0.08-0.07,0.15-0.12,0.22c-0.05,0.07-0.1,0.14-0.16,0.2
			c-0.06,0.06-0.12,0.11-0.19,0.16c-0.07,0.05-0.15,0.09-0.22,0.12c-0.08,0.03-0.16,0.06-0.25,0.08C1.5,20.07,1.41,20.08,1.32,20.08
			z M1.32,11.31c-0.09,0-0.17,0.01-0.25,0.03c-0.08,0.02-0.16,0.04-0.24,0.07c-0.07,0.03-0.15,0.07-0.21,0.11
			c-0.07,0.04-0.13,0.1-0.19,0.15c-0.06,0.06-0.11,0.12-0.15,0.18c-0.05,0.07-0.08,0.14-0.12,0.21c-0.03,0.08-0.06,0.15-0.07,0.23
			c-0.02,0.08-0.03,0.17-0.03,0.25v6.21c0,0.08,0.01,0.17,0.03,0.25c0.02,0.08,0.04,0.16,0.07,0.23c0.03,0.07,0.07,0.15,0.12,0.21
			c0.04,0.07,0.1,0.13,0.15,0.19c0.06,0.06,0.12,0.11,0.19,0.15c0.07,0.05,0.14,0.08,0.21,0.12c0.08,0.03,0.15,0.06,0.24,0.07
			c0.17,0.03,0.34,0.03,0.5,0c0.08-0.02,0.16-0.04,0.23-0.07c0.07-0.03,0.15-0.07,0.21-0.12c0.07-0.05,0.13-0.1,0.18-0.15
			c0.06-0.06,0.11-0.12,0.15-0.19c0.04-0.07,0.08-0.14,0.12-0.21c0.03-0.08,0.06-0.15,0.07-0.23c0.02-0.08,0.03-0.17,0.03-0.25
			v-6.21c0-0.09-0.01-0.17-0.03-0.25c-0.02-0.08-0.04-0.16-0.07-0.23c-0.03-0.07-0.07-0.15-0.11-0.21c-0.04-0.07-0.1-0.13-0.15-0.18
			c-0.06-0.06-0.12-0.11-0.18-0.15c-0.07-0.04-0.14-0.08-0.21-0.11c-0.08-0.03-0.15-0.06-0.23-0.07C1.49,11.31,1.4,11.31,1.32,11.31
			z"/>
	</g>
	<g>
		<path class="st0" d="M21.47,11.27c-0.09,0-0.17,0.01-0.26,0.03c-0.08,0.02-0.16,0.04-0.24,0.07c-0.08,0.03-0.15,0.07-0.22,0.12
			c-0.07,0.05-0.13,0.1-0.19,0.16c-0.06,0.06-0.11,0.12-0.16,0.19c-0.05,0.07-0.09,0.14-0.12,0.22c-0.03,0.08-0.06,0.16-0.07,0.24
			c-0.02,0.08-0.03,0.17-0.03,0.26v0.78v0.78v0.78v0.78v0.78v0.78v0.78v0.78c0,0.09,0.01,0.17,0.03,0.26
			c0.02,0.08,0.04,0.16,0.07,0.24c0.03,0.08,0.07,0.15,0.12,0.22c0.05,0.07,0.1,0.13,0.16,0.19c0.06,0.06,0.12,0.11,0.19,0.16
			c0.07,0.05,0.14,0.09,0.22,0.12s0.16,0.06,0.24,0.08c0.08,0.02,0.17,0.03,0.26,0.03c0.09,0,0.18-0.01,0.26-0.03
			c0.08-0.02,0.16-0.04,0.24-0.08c0.08-0.03,0.15-0.07,0.22-0.12c0.07-0.05,0.13-0.1,0.19-0.16c0.06-0.06,0.11-0.12,0.16-0.19
			c0.05-0.07,0.09-0.14,0.12-0.22c0.03-0.08,0.06-0.16,0.08-0.24c0.02-0.08,0.03-0.17,0.03-0.26v-0.78v-0.78v-0.78v-0.78v-0.78V14.1
			v-0.78v-0.78c0-0.09-0.01-0.18-0.03-0.26c-0.02-0.08-0.04-0.16-0.08-0.24s-0.07-0.15-0.12-0.22c-0.05-0.07-0.1-0.13-0.16-0.19
			s-0.12-0.11-0.19-0.16c-0.07-0.05-0.14-0.09-0.22-0.12c-0.08-0.03-0.16-0.06-0.24-0.07C21.65,11.28,21.56,11.27,21.47,11.27z"/>
		<path class="st0" d="M21.47,20.08c-0.09,0-0.18-0.01-0.27-0.03c-0.08-0.02-0.17-0.04-0.25-0.08c-0.08-0.03-0.15-0.07-0.22-0.12
			c-0.07-0.05-0.14-0.1-0.19-0.16c-0.06-0.06-0.11-0.13-0.16-0.2c-0.05-0.07-0.09-0.15-0.12-0.22c-0.03-0.08-0.06-0.16-0.08-0.25
			c-0.02-0.09-0.03-0.18-0.03-0.26v-6.21c0-0.09,0.01-0.18,0.03-0.27c0.02-0.08,0.04-0.17,0.08-0.25c0.03-0.08,0.07-0.15,0.12-0.22
			c0.05-0.07,0.1-0.13,0.16-0.19c0.06-0.06,0.13-0.11,0.19-0.16c0.07-0.05,0.15-0.09,0.22-0.12c0.08-0.03,0.16-0.06,0.25-0.08
			c0.17-0.04,0.36-0.04,0.53,0c0.08,0.02,0.17,0.04,0.25,0.08c0.08,0.03,0.15,0.07,0.22,0.12c0.07,0.05,0.14,0.1,0.2,0.16
			c0.06,0.06,0.11,0.12,0.16,0.19c0.05,0.07,0.09,0.15,0.12,0.22c0.03,0.08,0.06,0.16,0.08,0.25c0.02,0.09,0.03,0.18,0.03,0.27v6.21
			c0,0.09-0.01,0.18-0.03,0.26c-0.02,0.08-0.04,0.17-0.08,0.25c-0.03,0.08-0.07,0.15-0.12,0.22c-0.05,0.07-0.1,0.14-0.16,0.2
			c-0.06,0.06-0.13,0.11-0.2,0.16c-0.07,0.05-0.15,0.09-0.22,0.12c-0.08,0.03-0.16,0.06-0.25,0.08
			C21.65,20.07,21.56,20.08,21.47,20.08z M21.47,11.31c-0.08,0-0.17,0.01-0.25,0.03c-0.08,0.02-0.16,0.04-0.23,0.07
			c-0.07,0.03-0.15,0.07-0.21,0.11c-0.07,0.04-0.13,0.1-0.19,0.15c-0.06,0.06-0.11,0.12-0.15,0.18c-0.05,0.07-0.08,0.14-0.12,0.21
			c-0.03,0.08-0.06,0.15-0.07,0.23c-0.02,0.08-0.03,0.17-0.03,0.25v6.21c0,0.08,0.01,0.17,0.03,0.25c0.02,0.08,0.04,0.16,0.07,0.23
			c0.03,0.07,0.07,0.15,0.12,0.21c0.04,0.07,0.1,0.13,0.15,0.19c0.06,0.06,0.12,0.11,0.19,0.15c0.07,0.05,0.14,0.08,0.21,0.12
			c0.08,0.03,0.15,0.06,0.23,0.07c0.16,0.03,0.34,0.03,0.5,0c0.08-0.02,0.16-0.04,0.24-0.07c0.07-0.03,0.15-0.07,0.21-0.12
			c0.07-0.05,0.13-0.1,0.19-0.15c0.06-0.06,0.11-0.12,0.15-0.19c0.05-0.07,0.08-0.14,0.12-0.21c0.03-0.08,0.06-0.15,0.07-0.23
			c0.02-0.08,0.03-0.17,0.03-0.25v-6.21c0-0.09-0.01-0.17-0.03-0.25c-0.02-0.08-0.04-0.16-0.07-0.23c-0.03-0.07-0.07-0.14-0.12-0.21
			c-0.04-0.07-0.1-0.13-0.15-0.18c-0.06-0.06-0.12-0.11-0.19-0.15c-0.07-0.04-0.14-0.08-0.21-0.11c-0.08-0.03-0.15-0.06-0.24-0.07
			C21.64,11.31,21.56,11.31,21.47,11.31z"/>
	</g>
	<g>
		<path class="st0" d="M3.76,11.27C3.76,11.27,3.76,11.28,3.76,11.27c0,0.01,0,0.01,0,0.01s0,0,0,0.01c0,0,0,0,0,0.01
			c0,0,0,0,0,0.01c0,0,0,0,0,0.01c0,0,0,0,0,0.01s0,0,0,0.01v1.43v1.43v1.43v1.43v1.43v1.43v1.43v1.43c0,0.13,0.01,0.26,0.04,0.39
			c0.03,0.13,0.06,0.25,0.11,0.36c0.05,0.12,0.11,0.22,0.18,0.33c0.07,0.1,0.15,0.2,0.24,0.29c0.09,0.09,0.18,0.17,0.29,0.24
			c0.1,0.07,0.21,0.13,0.33,0.18c0.12,0.05,0.24,0.09,0.36,0.11c0.13,0.03,0.26,0.04,0.39,0.04h0.26H6.2h0.26h0.26h0.26h0.26h0.26
			h0.26v0.41v0.41v0.41v0.41v0.41v0.41v0.41v0.41c0,0.09,0.01,0.17,0.03,0.26c0.02,0.08,0.04,0.16,0.07,0.24
			c0.03,0.08,0.07,0.15,0.12,0.22c0.05,0.07,0.1,0.13,0.16,0.19c0.06,0.06,0.12,0.11,0.19,0.16c0.07,0.05,0.14,0.09,0.22,0.12
			c0.08,0.03,0.16,0.06,0.24,0.08c0.08,0.02,0.17,0.03,0.26,0.03c0.09,0,0.18-0.01,0.26-0.03c0.08-0.02,0.16-0.04,0.24-0.08
			c0.08-0.03,0.15-0.07,0.22-0.12c0.07-0.05,0.13-0.1,0.19-0.16c0.06-0.06,0.11-0.12,0.16-0.19c0.05-0.07,0.09-0.14,0.12-0.22
			c0.03-0.08,0.06-0.16,0.07-0.24c0.02-0.08,0.03-0.17,0.03-0.26v-0.41v-0.41v-0.41v-0.41v-0.41v-0.41v-0.41v-0.41h0.27h0.27h0.27
			h0.27h0.27h0.27h0.27h0.27v0.41v0.41v0.41v0.41v0.41v0.41v0.41v0.41c0,0.09,0.01,0.17,0.03,0.26c0.02,0.08,0.04,0.16,0.07,0.24
			c0.03,0.08,0.07,0.15,0.12,0.22c0.05,0.07,0.1,0.13,0.16,0.19c0.06,0.06,0.12,0.11,0.19,0.16c0.07,0.05,0.14,0.09,0.22,0.12
			c0.08,0.03,0.16,0.06,0.24,0.08c0.08,0.02,0.17,0.03,0.26,0.03c0.09,0,0.18-0.01,0.26-0.03c0.08-0.02,0.16-0.04,0.24-0.08
			c0.08-0.03,0.15-0.07,0.22-0.12c0.07-0.05,0.13-0.1,0.19-0.16c0.06-0.06,0.11-0.12,0.16-0.19c0.05-0.07,0.09-0.14,0.12-0.22
			c0.03-0.08,0.06-0.16,0.07-0.24c0.02-0.08,0.03-0.17,0.03-0.26v-0.41v-0.41v-0.41v-0.41v-0.41v-0.41v-0.41v-0.41h0.26h0.26h0.26
			h0.26h0.26h0.26h0.26h0.26c0.13,0,0.26-0.01,0.39-0.04c0.13-0.03,0.25-0.06,0.36-0.11c0.12-0.05,0.23-0.11,0.33-0.18
			c0.1-0.07,0.2-0.15,0.29-0.24s0.17-0.18,0.24-0.29c0.07-0.1,0.13-0.21,0.18-0.33c0.05-0.12,0.09-0.24,0.11-0.36
			c0.03-0.13,0.04-0.26,0.04-0.39v-1.43v-1.43v-1.43v-1.43v-1.43v-1.43v-1.43v-1.43c0,0,0,0,0-0.01s0,0,0-0.01c0,0,0,0,0-0.01
			c0,0,0,0,0-0.01c0,0,0,0,0-0.01c0,0,0,0,0-0.01c0,0,0,0,0-0.01c0,0,0,0,0-0.01h-1.91h-1.91h-1.91h-1.91H9.49H7.58H5.67H3.76z"/>
		<path class="st0" d="M13.79,29.29c-0.09,0-0.18-0.01-0.27-0.03c-0.08-0.02-0.17-0.04-0.25-0.08c-0.08-0.03-0.15-0.07-0.22-0.12
			c-0.07-0.05-0.14-0.1-0.19-0.16c-0.06-0.06-0.11-0.13-0.16-0.2c-0.05-0.07-0.09-0.15-0.12-0.22c-0.03-0.08-0.06-0.16-0.08-0.25
			c-0.02-0.09-0.03-0.18-0.03-0.26v-3.23h-2.13v3.23c0,0.09-0.01,0.18-0.03,0.26c-0.02,0.08-0.04,0.17-0.08,0.25
			c-0.03,0.08-0.07,0.15-0.12,0.22c-0.05,0.07-0.1,0.14-0.16,0.2c-0.06,0.06-0.13,0.11-0.2,0.16c-0.07,0.05-0.15,0.09-0.22,0.12
			c-0.08,0.03-0.16,0.06-0.25,0.08c-0.17,0.04-0.36,0.04-0.53,0c-0.08-0.02-0.17-0.04-0.25-0.08c-0.08-0.03-0.15-0.07-0.22-0.12
			c-0.07-0.05-0.14-0.1-0.2-0.16c-0.06-0.06-0.11-0.13-0.16-0.2c-0.05-0.07-0.09-0.15-0.12-0.22c-0.03-0.08-0.06-0.16-0.08-0.25
			c-0.02-0.09-0.03-0.18-0.03-0.26v-3.23H5.68c-0.13,0-0.27-0.01-0.39-0.04c-0.13-0.03-0.25-0.06-0.37-0.11
			c-0.12-0.05-0.23-0.11-0.33-0.18c-0.1-0.07-0.2-0.15-0.29-0.24c-0.09-0.09-0.17-0.19-0.24-0.29c-0.07-0.1-0.13-0.22-0.18-0.33
			c-0.05-0.12-0.09-0.24-0.11-0.37c-0.03-0.13-0.04-0.26-0.04-0.39V11.25l0.03-0.01h15.33l0,0.03l-0.03,0.01l0.03-0.01l0,11.5
			c0,0.13-0.01,0.27-0.04,0.39c-0.03,0.13-0.06,0.25-0.11,0.37c-0.05,0.12-0.11,0.23-0.18,0.33c-0.07,0.1-0.15,0.2-0.24,0.29
			c-0.09,0.09-0.19,0.17-0.29,0.24c-0.1,0.07-0.22,0.13-0.33,0.18c-0.12,0.05-0.24,0.09-0.37,0.11c-0.13,0.03-0.26,0.04-0.4,0.04
			h-2.03v3.23c0,0.09-0.01,0.18-0.03,0.26c-0.02,0.08-0.04,0.17-0.08,0.25c-0.03,0.08-0.07,0.15-0.12,0.22
			c-0.05,0.07-0.1,0.14-0.16,0.2c-0.06,0.06-0.13,0.11-0.2,0.16c-0.07,0.05-0.15,0.09-0.22,0.12c-0.08,0.03-0.16,0.06-0.25,0.08
			C13.97,29.28,13.88,29.29,13.79,29.29z M10.28,24.67h2.26v3.3c0,0.08,0.01,0.17,0.03,0.25c0.02,0.08,0.04,0.16,0.07,0.23
			c0.03,0.07,0.07,0.15,0.12,0.21c0.04,0.07,0.1,0.13,0.15,0.19c0.06,0.06,0.12,0.11,0.19,0.15c0.07,0.05,0.14,0.08,0.21,0.12
			c0.08,0.03,0.15,0.06,0.23,0.07c0.17,0.03,0.34,0.03,0.5,0c0.08-0.02,0.16-0.04,0.24-0.07c0.07-0.03,0.15-0.07,0.21-0.12
			c0.07-0.04,0.13-0.1,0.19-0.15c0.06-0.06,0.11-0.12,0.15-0.19c0.05-0.07,0.08-0.14,0.12-0.21c0.03-0.08,0.06-0.15,0.07-0.23
			c0.02-0.08,0.03-0.17,0.03-0.25v-3.3h2.09c0.13,0,0.26-0.01,0.38-0.04c0.12-0.02,0.24-0.06,0.36-0.11
			c0.11-0.05,0.22-0.11,0.32-0.17c0.1-0.07,0.19-0.15,0.28-0.23c0.09-0.09,0.16-0.18,0.23-0.28c0.07-0.1,0.13-0.21,0.17-0.32
			c0.05-0.11,0.09-0.23,0.11-0.36c0.03-0.12,0.04-0.25,0.04-0.38V11.32l0.03-0.01l-0.03,0l0.01,0H3.79v11.47
			c0,0.13,0.01,0.26,0.04,0.38c0.02,0.12,0.06,0.24,0.11,0.36c0.05,0.11,0.11,0.22,0.17,0.32c0.07,0.1,0.15,0.19,0.23,0.28
			c0.09,0.09,0.18,0.16,0.28,0.23c0.1,0.07,0.21,0.13,0.32,0.17c0.11,0.05,0.23,0.09,0.36,0.11c0.12,0.03,0.25,0.04,0.38,0.04h2.09
			v3.3c0,0.08,0.01,0.17,0.03,0.25c0.02,0.08,0.04,0.16,0.07,0.23c0.03,0.07,0.07,0.15,0.12,0.21c0.04,0.07,0.1,0.13,0.15,0.19
			c0.06,0.06,0.12,0.11,0.19,0.15c0.07,0.05,0.14,0.08,0.21,0.12c0.08,0.03,0.15,0.06,0.24,0.07c0.17,0.03,0.34,0.03,0.5,0
			c0.08-0.02,0.16-0.04,0.24-0.07c0.07-0.03,0.15-0.07,0.21-0.12c0.07-0.04,0.13-0.1,0.19-0.15c0.06-0.06,0.11-0.12,0.15-0.19
			c0.05-0.07,0.08-0.14,0.12-0.21c0.03-0.08,0.06-0.15,0.07-0.23c0.02-0.08,0.03-0.17,0.03-0.25V24.67z M19.06,11.3L19.06,11.3
			L19.06,11.3L19.06,11.3z M19.06,11.28L19.06,11.28L19.06,11.28L19.06,11.28z"/>
	</g>
	<g>
		<path class="st0" d="M15.15,3.47l0.17-0.32l0.17-0.32l0.17-0.32l0.17-0.32L16,1.87l0.17-0.32l0.17-0.32l0.17-0.32l-0.04-0.02
			l-0.04-0.02l-0.04-0.02l-0.04-0.02l-0.04-0.02L16.31,0.8l-0.04-0.02l-0.04-0.02l-0.17,0.32L15.89,1.4l-0.17,0.32l-0.17,0.32
			l-0.17,0.32L15.2,2.68L15.03,3l-0.17,0.32c-0.13-0.07-0.26-0.13-0.39-0.19c-0.13-0.06-0.27-0.11-0.41-0.17
			c-0.14-0.05-0.28-0.1-0.42-0.14c-0.14-0.04-0.28-0.08-0.43-0.12c-0.14-0.04-0.29-0.07-0.44-0.09c-0.15-0.03-0.3-0.05-0.45-0.07
			c-0.15-0.02-0.3-0.03-0.46-0.04c-0.15-0.01-0.31-0.01-0.46-0.01c-0.15,0-0.29,0-0.44,0.01c-0.15,0.01-0.29,0.02-0.43,0.04
			c-0.14,0.02-0.28,0.04-0.43,0.06C9.97,2.62,9.83,2.65,9.69,2.68C9.55,2.72,9.42,2.75,9.28,2.79c-0.13,0.04-0.27,0.08-0.4,0.13
			c-0.13,0.05-0.26,0.1-0.39,0.15C8.37,3.12,8.24,3.18,8.11,3.24L7.95,2.93L7.78,2.62L7.61,2.31L7.45,2L7.28,1.69L7.11,1.38
			L6.95,1.07L6.78,0.76L6.74,0.78L6.71,0.8L6.67,0.81L6.64,0.83L6.6,0.85L6.57,0.87L6.53,0.89L6.49,0.91l0.17,0.31l0.17,0.31
			l0.17,0.31l0.17,0.31l0.17,0.31l0.17,0.31l0.17,0.31l0.17,0.31c-0.3,0.16-0.58,0.34-0.85,0.54C6.7,4.11,6.44,4.33,6.2,4.56
			C5.95,4.79,5.73,5.03,5.52,5.29C5.3,5.55,5.11,5.82,4.93,6.11C4.76,6.4,4.6,6.69,4.46,7S4.21,7.63,4.11,7.96
			c-0.1,0.33-0.17,0.67-0.22,1.02c-0.05,0.35-0.08,0.7-0.08,1.06h1.9h1.9h1.9h1.9h1.9h1.9h1.9h1.9c0-0.35-0.03-0.7-0.08-1.04
			c-0.05-0.34-0.12-0.67-0.21-0.99c-0.09-0.32-0.2-0.64-0.34-0.94c-0.13-0.3-0.28-0.6-0.45-0.88c-0.17-0.28-0.36-0.55-0.56-0.81
			c-0.2-0.26-0.42-0.5-0.66-0.73c-0.23-0.23-0.48-0.44-0.74-0.64C15.71,3.81,15.43,3.63,15.15,3.47z M7.49,7.11
			c-0.05,0-0.1-0.01-0.14-0.01C7.3,7.08,7.26,7.07,7.21,7.05C7.17,7.03,7.13,7.01,7.09,6.98C7.05,6.96,7.01,6.93,6.98,6.9
			C6.95,6.86,6.92,6.83,6.89,6.79C6.87,6.75,6.84,6.71,6.83,6.67C6.81,6.62,6.79,6.58,6.78,6.53C6.77,6.48,6.77,6.44,6.77,6.39
			c0-0.05,0.01-0.1,0.01-0.15c0.01-0.05,0.02-0.09,0.04-0.14c0.02-0.04,0.04-0.08,0.07-0.12c0.03-0.04,0.06-0.07,0.09-0.11
			c0.03-0.03,0.07-0.06,0.11-0.09c0.04-0.03,0.08-0.05,0.12-0.07C7.26,5.7,7.3,5.68,7.35,5.67c0.05-0.01,0.1-0.01,0.14-0.01
			c0.05,0,0.1,0.01,0.15,0.01C7.69,5.68,7.73,5.7,7.77,5.72C7.82,5.74,7.86,5.76,7.9,5.78C7.94,5.81,7.97,5.84,8,5.87
			c0.03,0.03,0.06,0.07,0.09,0.11c0.03,0.04,0.05,0.08,0.07,0.12C8.18,6.15,8.19,6.19,8.2,6.24c0.01,0.05,0.01,0.1,0.01,0.15
			c0,0.05-0.01,0.1-0.01,0.14C8.19,6.58,8.18,6.62,8.16,6.67C8.14,6.71,8.12,6.75,8.09,6.79C8.07,6.83,8.04,6.86,8,6.9
			C7.97,6.93,7.94,6.96,7.9,6.98C7.86,7.01,7.82,7.03,7.77,7.05C7.73,7.07,7.69,7.08,7.64,7.09C7.59,7.1,7.54,7.11,7.49,7.11z
			 M15.2,7.11c-0.05,0-0.1-0.01-0.15-0.01c-0.05-0.01-0.09-0.02-0.14-0.04c-0.04-0.02-0.08-0.04-0.12-0.07
			c-0.04-0.03-0.07-0.06-0.11-0.09c-0.03-0.03-0.06-0.07-0.09-0.11c-0.03-0.04-0.05-0.08-0.07-0.12s-0.03-0.09-0.04-0.13
			c-0.01-0.05-0.01-0.09-0.01-0.14c0-0.05,0.01-0.1,0.01-0.15c0.01-0.05,0.02-0.09,0.04-0.14c0.02-0.04,0.04-0.08,0.07-0.12
			c0.03-0.04,0.06-0.07,0.09-0.11c0.03-0.03,0.07-0.06,0.11-0.09c0.04-0.03,0.08-0.05,0.12-0.07c0.04-0.02,0.09-0.03,0.14-0.04
			c0.05-0.01,0.1-0.01,0.15-0.01c0.05,0,0.1,0.01,0.15,0.01c0.05,0.01,0.09,0.02,0.14,0.04c0.04,0.02,0.08,0.04,0.12,0.07
			c0.04,0.03,0.07,0.06,0.11,0.09c0.03,0.03,0.06,0.07,0.09,0.11c0.03,0.04,0.05,0.08,0.07,0.12c0.02,0.04,0.03,0.09,0.04,0.14
			c0.01,0.05,0.01,0.1,0.01,0.15c0,0.05-0.01,0.1-0.01,0.14c-0.01,0.05-0.02,0.09-0.04,0.13c-0.02,0.04-0.04,0.08-0.07,0.12
			c-0.03,0.04-0.06,0.07-0.09,0.11c-0.03,0.03-0.07,0.06-0.11,0.09c-0.04,0.03-0.08,0.05-0.12,0.07c-0.04,0.02-0.09,0.03-0.14,0.04
			C15.3,7.1,15.25,7.11,15.2,7.11z"/>
		<path class="st0" d="M19.04,10.07H3.77l0-0.03c0-0.36,0.03-0.72,0.08-1.07c0.05-0.34,0.13-0.69,0.22-1.02
			c0.1-0.33,0.21-0.65,0.35-0.96c0.14-0.31,0.3-0.61,0.47-0.9c0.18-0.29,0.37-0.56,0.58-0.82C5.7,5.01,5.93,4.76,6.17,4.53
			c0.24-0.23,0.5-0.45,0.78-0.64C7.22,3.7,7.49,3.52,7.78,3.37L6.45,0.9l0.34-0.18L8.13,3.2c0.12-0.06,0.23-0.11,0.35-0.16
			c0.13-0.05,0.26-0.1,0.39-0.15C9,2.84,9.14,2.8,9.27,2.76c0.14-0.04,0.27-0.08,0.41-0.11c0.14-0.03,0.28-0.06,0.42-0.08
			c0.14-0.02,0.28-0.05,0.43-0.06c0.14-0.02,0.29-0.03,0.43-0.04c0.3-0.02,0.61-0.02,0.91,0c0.15,0.01,0.31,0.02,0.46,0.04
			c0.15,0.02,0.3,0.04,0.45,0.07c0.15,0.03,0.3,0.06,0.44,0.09c0.14,0.04,0.29,0.07,0.43,0.12c0.14,0.04,0.28,0.09,0.42,0.14
			c0.14,0.05,0.27,0.11,0.41,0.17c0.12,0.05,0.25,0.11,0.37,0.17l1.38-2.56l0.34,0.18l-1.37,2.56c0.28,0.16,0.54,0.33,0.8,0.53
			c0.26,0.2,0.51,0.41,0.75,0.64c0.23,0.23,0.46,0.47,0.66,0.73c0.2,0.26,0.39,0.53,0.56,0.81c0.17,0.28,0.32,0.58,0.46,0.88
			c0.13,0.31,0.25,0.63,0.34,0.95c0.09,0.33,0.16,0.66,0.21,1c0.05,0.34,0.08,0.69,0.08,1.04L19.04,10.07z M3.84,10.01h15.13
			c0-0.33-0.03-0.67-0.08-1c-0.05-0.33-0.12-0.67-0.21-0.99c-0.09-0.32-0.2-0.63-0.34-0.94c-0.13-0.3-0.28-0.59-0.45-0.88
			c-0.17-0.28-0.35-0.55-0.56-0.81c-0.2-0.25-0.42-0.5-0.65-0.73c-0.23-0.23-0.48-0.44-0.74-0.64c-0.26-0.2-0.54-0.38-0.82-0.54
			L15.1,3.48l1.37-2.56L16.25,0.8l-1.38,2.56l-0.03-0.01c-0.13-0.07-0.26-0.13-0.39-0.19C14.32,3.1,14.18,3.05,14.05,3
			c-0.14-0.05-0.28-0.1-0.42-0.14c-0.14-0.04-0.28-0.08-0.43-0.12c-0.14-0.04-0.29-0.07-0.44-0.09c-0.15-0.03-0.3-0.05-0.45-0.07
			c-0.15-0.02-0.3-0.03-0.45-0.04c-0.3-0.02-0.6-0.02-0.9,0c-0.14,0.01-0.29,0.02-0.43,0.04c-0.14,0.02-0.28,0.04-0.42,0.06
			C9.98,2.66,9.84,2.68,9.7,2.72C9.56,2.75,9.43,2.78,9.29,2.82c-0.13,0.04-0.27,0.08-0.4,0.13C8.76,3,8.63,3.05,8.51,3.1
			C8.38,3.15,8.25,3.21,8.13,3.27L8.1,3.28L6.77,0.8L6.54,0.92l1.33,2.47L7.84,3.41C7.55,3.57,7.26,3.75,6.99,3.94
			C6.72,4.14,6.46,4.35,6.22,4.58C5.98,4.81,5.75,5.05,5.54,5.31C5.33,5.57,5.14,5.84,4.96,6.13C4.79,6.41,4.63,6.71,4.49,7.02
			C4.35,7.33,4.24,7.65,4.14,7.97C4.05,8.3,3.97,8.64,3.92,8.98C3.87,9.32,3.85,9.66,3.84,10.01z M15.2,7.14
			c-0.05,0-0.1-0.01-0.15-0.02C15,7.12,14.95,7.1,14.9,7.08c-0.04-0.02-0.09-0.04-0.13-0.07c-0.04-0.03-0.08-0.06-0.11-0.09
			c-0.03-0.03-0.06-0.07-0.09-0.11c-0.03-0.04-0.05-0.08-0.07-0.13c-0.02-0.05-0.03-0.09-0.04-0.14c-0.01-0.05-0.02-0.1-0.02-0.15
			c0-0.05,0.01-0.1,0.02-0.15c0.01-0.05,0.02-0.1,0.04-0.14c0.02-0.05,0.04-0.09,0.07-0.13c0.03-0.04,0.06-0.08,0.09-0.11
			c0.03-0.03,0.07-0.07,0.11-0.09c0.04-0.03,0.08-0.05,0.13-0.07c0.05-0.02,0.09-0.03,0.14-0.04c0.1-0.02,0.21-0.02,0.31,0
			c0.05,0.01,0.1,0.03,0.14,0.04c0.04,0.02,0.09,0.04,0.13,0.07c0.04,0.03,0.08,0.06,0.11,0.09c0.03,0.03,0.06,0.07,0.09,0.11
			C15.85,6,15.88,6.05,15.9,6.09c0.02,0.05,0.03,0.09,0.04,0.14c0.01,0.05,0.02,0.1,0.02,0.15c0,0.05-0.01,0.1-0.02,0.15
			c-0.01,0.05-0.02,0.1-0.04,0.14c-0.02,0.04-0.04,0.09-0.07,0.13c-0.03,0.04-0.06,0.08-0.09,0.11c-0.03,0.03-0.07,0.07-0.11,0.09
			c-0.04,0.03-0.08,0.05-0.13,0.07c-0.05,0.02-0.09,0.03-0.14,0.04C15.3,7.14,15.25,7.14,15.2,7.14z M15.2,5.69
			c-0.05,0-0.09,0-0.14,0.01c-0.04,0.01-0.09,0.02-0.13,0.04c-0.04,0.02-0.08,0.04-0.12,0.06c-0.04,0.02-0.07,0.05-0.1,0.09
			c-0.03,0.03-0.06,0.07-0.08,0.1c-0.02,0.04-0.05,0.08-0.06,0.12c-0.02,0.04-0.03,0.09-0.04,0.13c-0.01,0.05-0.01,0.09-0.01,0.14
			c0,0.05,0,0.09,0.01,0.14c0.01,0.04,0.02,0.09,0.04,0.13c0.02,0.04,0.04,0.08,0.06,0.12c0.02,0.04,0.05,0.07,0.08,0.1
			c0.03,0.03,0.07,0.06,0.1,0.08c0.04,0.03,0.08,0.05,0.12,0.06c0.04,0.02,0.08,0.03,0.13,0.04c0.09,0.02,0.19,0.02,0.28,0
			c0.04-0.01,0.09-0.02,0.13-0.04c0.04-0.02,0.08-0.04,0.12-0.06c0.04-0.02,0.07-0.05,0.1-0.08c0.03-0.03,0.06-0.07,0.08-0.1
			c0.02-0.04,0.05-0.08,0.06-0.12c0.02-0.04,0.03-0.08,0.04-0.13c0.01-0.04,0.01-0.09,0.01-0.14c0-0.05,0-0.09-0.01-0.14
			c-0.01-0.04-0.02-0.09-0.04-0.13C15.82,6.08,15.8,6.04,15.77,6c-0.02-0.04-0.05-0.07-0.08-0.1c-0.03-0.03-0.07-0.06-0.1-0.09
			c-0.04-0.03-0.08-0.05-0.12-0.06c-0.04-0.02-0.09-0.03-0.13-0.04C15.29,5.7,15.25,5.69,15.2,5.69z M7.49,7.14
			c-0.05,0-0.1-0.01-0.15-0.02C7.29,7.12,7.24,7.1,7.2,7.08C7.15,7.06,7.11,7.04,7.07,7.01C7.03,6.99,6.99,6.95,6.96,6.92
			C6.92,6.89,6.89,6.85,6.86,6.81C6.84,6.77,6.81,6.72,6.79,6.68C6.77,6.63,6.76,6.59,6.75,6.54c-0.01-0.05-0.02-0.1-0.02-0.15
			c0-0.05,0.01-0.1,0.02-0.15c0.01-0.05,0.03-0.1,0.04-0.14C6.81,6.05,6.84,6,6.86,5.96c0.03-0.04,0.06-0.08,0.09-0.11
			c0.03-0.03,0.07-0.07,0.11-0.09C7.11,5.73,7.15,5.71,7.2,5.69c0.05-0.02,0.09-0.03,0.14-0.04c0.1-0.02,0.2-0.02,0.3,0
			c0.05,0.01,0.1,0.03,0.14,0.04c0.04,0.02,0.09,0.04,0.13,0.07c0.04,0.03,0.08,0.06,0.11,0.09c0.03,0.03,0.07,0.07,0.09,0.11
			C8.15,6,8.17,6.05,8.19,6.09c0.02,0.05,0.03,0.09,0.04,0.14c0.01,0.05,0.02,0.1,0.02,0.15c0,0.05-0.01,0.1-0.02,0.15
			c-0.01,0.05-0.02,0.1-0.04,0.14C8.17,6.72,8.15,6.77,8.12,6.81C8.09,6.85,8.06,6.89,8.03,6.92C7.99,6.95,7.96,6.99,7.92,7.01
			C7.88,7.04,7.83,7.06,7.79,7.08C7.74,7.1,7.69,7.12,7.64,7.13C7.59,7.14,7.54,7.14,7.49,7.14z M7.49,5.69
			c-0.05,0-0.09,0-0.14,0.01C7.31,5.72,7.27,5.73,7.23,5.75C7.18,5.76,7.14,5.79,7.11,5.81C7.07,5.84,7.04,5.87,7,5.9
			C6.97,5.93,6.94,5.96,6.92,6C6.89,6.04,6.87,6.08,6.86,6.12C6.84,6.16,6.82,6.2,6.82,6.25C6.81,6.29,6.8,6.34,6.8,6.39
			c0,0.05,0,0.09,0.01,0.14c0.01,0.04,0.02,0.09,0.04,0.13c0.02,0.04,0.04,0.08,0.06,0.12C6.94,6.81,6.97,6.84,7,6.87
			c0.03,0.03,0.07,0.06,0.1,0.08C7.14,6.98,7.18,7,7.23,7.02c0.04,0.02,0.09,0.03,0.13,0.04c0.09,0.02,0.19,0.02,0.28,0
			c0.04-0.01,0.09-0.02,0.13-0.04C7.8,7,7.84,6.98,7.88,6.96c0.04-0.02,0.07-0.05,0.1-0.08c0.03-0.03,0.06-0.07,0.08-0.1
			c0.03-0.04,0.05-0.08,0.06-0.12c0.02-0.04,0.03-0.08,0.04-0.13c0.01-0.05,0.01-0.09,0.01-0.14c0-0.05,0-0.09-0.01-0.14
			C8.16,6.2,8.15,6.16,8.13,6.12C8.11,6.08,8.09,6.04,8.07,6C8.04,5.96,8.01,5.93,7.98,5.9c-0.03-0.03-0.07-0.06-0.1-0.09
			C7.84,5.79,7.8,5.76,7.76,5.75C7.72,5.73,7.68,5.72,7.63,5.71C7.59,5.7,7.54,5.69,7.49,5.69z"/>
	</g>
</g>
</svg>
