<?xml version="1.0" encoding="utf-8"?>
<!-- Generator: Adobe Illustrator 25.4.2, SVG Export Plug-In . SVG Version: 6.00 Build 0)  -->
<svg version="1.1" id="Layer_1" xmlns="http://www.w3.org/2000/svg" xmlns:xlink="http://www.w3.org/1999/xlink" x="0px" y="0px"
	 viewBox="0 0 24.35 30" style="enable-background:new 0 0 24.35 30;" xml:space="preserve">
<style type="text/css">
	.st0{fill:#010101;}
</style>
<path class="st0" d="M20.36,15.82c-0.05-2.29,1.2-4.41,3.23-5.48c-1.27-1.76-3.3-2.83-5.47-2.88c-1.95,0.2-3.87,0.65-5.71,1.34
	c-1.62-0.52-3.26-0.95-4.93-1.28c-4.32,0.2-7.66,3.85-7.46,8.17c0.01,0.14,0.02,0.29,0.03,0.43c0.02,1.79,0.33,3.56,0.93,5.24
	c0.83,2.37,3.81,8.18,6.92,8.08c1.63-0.04,2.78-1.16,4.9-1.16c2.05,0,3.12,1.16,4.93,1.16c3.13-0.05,5.84-5.33,6.63-7.71
	C21.93,20.76,20.36,18.42,20.36,15.82L20.36,15.82z M16.71,5.22c1.15-1.27,1.72-2.97,1.55-4.68C16.57,0.72,15,1.52,13.87,2.79
	c-1.17,1.25-1.77,2.93-1.65,4.64C13.99,7.47,15.66,6.65,16.71,5.22L16.71,5.22z"/>
</svg>
