<?xml version="1.0" encoding="utf-8"?>
<!-- Generator: Adobe Illustrator 25.4.2, SVG Export Plug-In . SVG Version: 6.00 Build 0)  -->
<svg version="1.1" id="Layer_1" xmlns="http://www.w3.org/2000/svg" xmlns:xlink="http://www.w3.org/1999/xlink" x="0px" y="0px"
	 viewBox="0 0 45.35 30" style="enable-background:new 0 0 45.35 30;" xml:space="preserve">
<style type="text/css">
	.st0{fill:#010101;}
</style>
<path class="st0" d="M0.16,25.9h3.75V9.92H0.16V25.9z M2.04,7.82c1.13,0,2.04-0.91,2.04-2.04c0-1.13-0.91-2.04-2.04-2.04
	c0,0,0,0,0,0C0.92,3.73,0,4.65,0,5.78S0.91,7.82,2.04,7.82C2.04,7.82,2.04,7.82,2.04,7.82z M16.42,3.78
	C10.07,3.78,6.1,8.11,6.1,15.03s3.98,11.24,10.33,11.24s10.31-4.31,10.31-11.24S22.76,3.78,16.42,3.78z M16.42,7.1
	c3.88,0,6.35,3.08,6.35,7.93s-2.48,7.91-6.35,7.91s-6.35-3.08-6.35-7.92S12.53,7.1,16.42,7.1L16.42,7.1z M28.32,19.78
	c0.17,4.01,3.45,6.48,8.46,6.48c5.26,0,8.58-2.59,8.58-6.73c0-3.24-1.87-5.07-6.29-6.08l-2.5-0.57c-2.67-0.63-3.77-1.48-3.77-2.93
	c0-1.8,1.66-3.02,4.12-3.02c2.46,0,4.19,1.22,4.37,3.26H45c-0.09-3.82-3.26-6.41-8.06-6.41c-4.73,0-8.09,2.6-8.09,6.47
	c0,3.11,1.9,5.04,5.91,5.96l2.82,0.66c2.74,0.65,3.86,1.55,3.86,3.12c0,1.8-1.83,3.11-4.45,3.11c-2.62,0-4.67-1.32-4.91-3.32H28.32z
	"/>
</svg>
