<svg xmlns="http://www.w3.org/2000/svg" viewBox="0 0 859.6 249.79"><defs><style>.cls-1{fill:#ff7800;}.cls-2{fill:#fff;}.cls-3{fill:#2d364c;}</style></defs><g id="Layer_2" data-name="Layer 2"><g id="svg8"><path class="cls-1" d="M235,168c-8.2-7.7-13.6-8.7-20.2-13.6-20.2-14.8-25.1-45.9-9.6-66.1,4.4-5.8,10-9.9,16.2-14,6.5-4.3,12.4-10.5,15.4-17a40.61,40.61,0,0,0-4.8-41.7c-9.1-11.7-23.3-17.8-38.8-14.9-7.3,1.3-13.5,4.4-19.7,9.9-6.4,5.7-8,11.6-15.3,18.7-11.5,11.3-25.4,16.9-41.8,15.7-8-.5-14.8-2.5-22.9-7-8.7-4.9-12.1-10.8-18.8-12.3-6.9-1.6-14.7.4-19.3,5.7-6.3,7.3-5.5,14-2.7,22.7,2.6,8.2,4.8,16.2,5.2,24.8a77.37,77.37,0,0,1-3,25.3c-4.4,15-15.3,29-25.8,38.2-8.6,7.6-14.7,8.8-20.2,14.2A28.11,28.11,0,0,0,0,176.92a28.46,28.46,0,0,0,23.2,28c10.3,1.9,20.2-2.8,23.3-3.8,21.5-6.8,48.4-5.9,67.9-.3,16.1,4.7,30,13,43,23.5,6.2,5.1,11,11.9,17.6,16.6,16.9,12.1,46.1,14.4,64.7-9.6,12.6-16.1,15.6-44.2-4.7-63.3"/><path class="cls-2" d="M154.8,80.22a8.38,8.38,0,0,0-8.7,8.6v6.7c-6.5-8.7-15.3-14.6-27.3-14.6-9.8,0-18.1,3.9-25,11.8s-10.4,17.4-10.4,28.5,3.5,20.6,10.4,28.5,15.2,11.9,25,11.9c12.8,0,21.7-7,27.3-14.6v7.2a8.48,8.48,0,0,0,8.6,8.3c6,0,8.5-5.2,8.5-8.6V88.82a8.53,8.53,0,0,0-8.4-8.6m-31.3,65.6c-13.1,0-22.6-12-22.6-24.8,0-13.6,9.7-24.8,22.6-24.8,13.9,0,22.6,12.4,22.6,24.8,0,13-9.3,24.8-22.6,24.8"/><path class="cls-3" d="M515.9,70.82c-9.1-3.6-15.8,3.3-17.5,7.7l-32.8,86-32.8-86c-1.7-4.4-8.4-11.2-17.5-7.7-9.8,3.9-9.3,13.1-7.7,17.2,0,0,27.3,71.7,36.2,94.9,5.1,13.3,15.1,16.1,21.8,16.2s16.7-2.8,21.8-16.2c8.8-23.2,36.2-94.9,36.2-94.9,1.6-4.1,2.1-13.3-7.7-17.2m-139-1c-9.9,0-13.7,7.8-13.7,13.5v10.5C353,80.12,339.2,71,320.4,71q-23.1,0-39.3,18.6c-10.8,12.4-16.3,27.3-16.3,44.8s5.4,32.3,16.3,44.7,23.9,18.7,39.3,18.7c20.2,0,34.1-11,42.8-22.9v11.3a13.42,13.42,0,0,0,13.6,13.1c9.4,0,13.4-8.2,13.4-13.5V83.52a13.54,13.54,0,0,0-13.3-13.7m-49.5,103.5c-20.6,0-35.4-18.8-35.4-39,0-21.4,15.3-38.9,35.4-38.9,21.8,0,35.4,19.5,35.4,38.9.1,20.5-14.5,39-35.4,39M641.9,69.82c-9.9,0-13.7,7.8-13.7,13.5v10.5C618,80.12,604.2,71,585.4,71q-23.1,0-39.3,18.6c-10.8,12.4-16.3,27.3-16.3,44.8s5.4,32.3,16.3,44.7,23.9,18.7,39.3,18.7c20.2,0,34.1-11,42.8-22.9v11.3a13.42,13.42,0,0,0,13.6,13.1c9.4,0,13.4-8.2,13.4-13.5V83.52a13.66,13.66,0,0,0-13.3-13.7m-49.5,103.5c-20.6,0-35.4-18.8-35.4-39,0-21.4,15.3-38.9,35.4-38.9,21.8,0,35.4,19.5,35.4,38.9,0,20.5-14.6,39-35.4,39"/><path class="cls-3" d="M677.8,184.12a10.92,10.92,0,0,1-5.4-9.9,11.64,11.64,0,0,1,17.7-9.9c12,8,24.6,12,35.9,12,12.3,0,19.4-5.2,19.4-13.5v-.5c0-9.7-13.2-12.5-27.9-17-18.4-5.2-39-13.2-39-37.1v-.5c0-23.6,19.6-38,44.4-38a85.4,85.4,0,0,1,39.2,10.2,12.17,12.17,0,0,1,6.9,10.9,11.53,11.53,0,0,1-11.8,11.6,11.73,11.73,0,0,1-5.7-1.4c-10.2-5.2-20.5-8.5-29.3-8.5-11.1,0-17.5,5.2-17.5,12.3v.5c0,9.2,13.5,12.5,28.1,17.2,18.2,5.7,38.7,14.4,38.7,36.9v.5c0,26.2-20.3,39.2-46.3,39.2a85.6,85.6,0,0,1-47.4-15Zm119.7-21.4V97.92h-5.4a12.2,12.2,0,1,1,0-24.4h5.4V54.32c0-7.8,5.6-14.1,13.6-14.1,7.8,0,13.3,6.4,13.3,14.1v19.2h21.3a12.2,12.2,0,1,1,0,24.4H824.4v60.3c0,11.1,6.5,15.5,16.1,15.5a70.88,70.88,0,0,0,7.1-.7,12,12,0,0,1,12,11.8,12.32,12.32,0,0,1-7.5,11.1,57.1,57.1,0,0,1-19.6,3.3c-20.9,0-35-9.2-35-36.5Z"/></g></g></svg>