<?xml version="1.0" encoding="utf-8"?>
<!-- Generator: Adobe Illustrator 27.0.1, SVG Export Plug-In . SVG Version: 6.00 Build 0)  -->
<svg version="1.1" id="Layer_1" xmlns="http://www.w3.org/2000/svg" xmlns:xlink="http://www.w3.org/1999/xlink" x="0px" y="0px"
	 viewBox="0 0 2627.6 525.6" style="enable-background:new 0 0 2627.6 525.6;" xml:space="preserve">
<style type="text/css">
	.st0{fill:#FFFFFF;}
</style>
<g>
	<polygon class="st0" points="476.3,215.4 318.6,215.4 269.8,65.2 221,215.4 63.2,215.2 191,308.2 142.1,458.2 269.8,365.4 
		348.7,308.2 	"/>
	<polygon class="st0" points="359.7,342.1 269.8,365.4 397.4,458.2 	"/>
</g>
<g>
	<polygon class="st0" points="997.4,215.4 839.7,215.4 791,65.2 742.1,215.4 584.3,215.2 712.1,308.2 663.2,458.2 791,365.4 
		869.8,308.2 	"/>
	<polygon class="st0" points="880.8,342.1 791,365.4 918.6,458.2 	"/>
</g>
<g>
	<polygon class="st0" points="1517.6,215.4 1359.8,215.4 1311.1,65.2 1262.2,215.4 1104.4,215.2 1232.2,308.2 1183.3,458.2 
		1311.1,365.4 1390,308.2 	"/>
	<polygon class="st0" points="1400.9,342.1 1311.1,365.4 1438.7,458.2 	"/>
</g>
<g>
	<polygon class="st0" points="2037.7,215.4 1879.9,215.4 1831.2,65.2 1782.3,215.4 1624.6,215.2 1752.3,308.2 1703.4,458.2 
		1831.2,365.4 1910.1,308.2 	"/>
	<polygon class="st0" points="1921,342.1 1831.2,365.4 1958.8,458.2 	"/>
</g>
<g>
	<polygon class="st0" points="2557.8,215.4 2400,215.4 2351.3,65.2 2302.4,215.4 2144.7,215.2 2272.4,308.2 2223.5,458.2 
		2351.3,365.4 2430.2,308.2 	"/>
	<polygon class="st0" points="2441.1,342.1 2351.3,365.4 2478.9,458.2 	"/>
</g>
</svg>
