<?xml version="1.0" encoding="utf-8"?>
<!-- Generator: Adobe Illustrator 28.2.0, SVG Export Plug-In . SVG Version: 6.00 Build 0)  -->
<svg version="1.1" xmlns="http://www.w3.org/2000/svg" xmlns:xlink="http://www.w3.org/1999/xlink" x="0px" y="0px"
	 viewBox="0 0 136 119.2" style="enable-background:new 0 0 136 119.2;" xml:space="preserve">
<style type="text/css">
	.st0{fill:#E08F00;}
	.st1{fill:#FFC400;}
	.st2{fill:#513A3A;}
	.st3{fill:#604848;}
</style>
<g id="BACKGROUND">
</g>
<g id="OBJECTS">
	<g>
		<g>
			<path class="st0" d="M101.1,63.6c-1.8,0.1-3.6,0-5.4-0.4c-13.9-2.4-23.3-15.7-20.8-29.6c0.7-4.2,2.5-8,4.9-11.2
				c-3.6-3.8-5.5-9.3-4.5-14.9c0.1-0.9,0.4-1.7,0.6-2.5c-2.6-0.9-5.4-1.6-8.2-2.1C35.8-2.5,5.5,18.8,0,50.7
				c-5.5,31.8,15.8,62.1,47.6,67.7c29,5.1,56.8-12.2,65.6-39.5C106.4,76.8,101.6,70.6,101.1,63.6z"/>
			<path class="st1" d="M101.1,63.6c-1.8,0.1-3.6,0-5.4-0.4c-13.9-2.4-23.3-15.7-20.8-29.6c0.7-4.2,2.5-8,4.9-11.2
				c-3.6-3.8-5.5-9.3-4.5-14.9c0.2-1,0.4-1.9,0.7-2.8c-1.8-0.5-3.6-0.9-5.4-1.2c-30.2-5.3-58.8,14-63.9,43
				c-5,29,15.4,56.8,45.6,62.1c25.5,4.4,49.8-8.6,59.9-30.1C105.9,76.1,101.6,70.3,101.1,63.6z"/>
		</g>
		<g>
			<path class="st2" d="M59,22.3c-0.8,4.8-5.4,8-10.2,7.2c-4.8-0.8-8-5.4-7.2-10.2c0.8-4.8,5.4-8,10.2-7.2
				C56.6,12.9,59.8,17.5,59,22.3z"/>
			<path class="st3" d="M55.6,16.9c-0.5,1-2.3,1.1-4.1,0.2c-1.8-0.8-2.9-2.3-2.4-3.3c0.5-1,2.3-1.1,4.1-0.2
				C54.9,14.4,56,15.9,55.6,16.9z"/>
		</g>
		<g>
			<path class="st2" d="M33.9,54.4c-1,5.7-6.4,9.5-12.1,8.5c-5.7-1-9.5-6.4-8.5-12.1c1-5.7,6.4-9.5,12.1-8.5
				C31.1,43.3,34.9,48.7,33.9,54.4z"/>
			<path class="st3" d="M29.9,47.9c-0.5,1.1-2.7,1.3-4.8,0.3c-2.1-1-3.4-2.7-2.9-3.9c0.5-1.1,2.7-1.3,4.8-0.3
				C29.1,45.1,30.4,46.8,29.9,47.9z"/>
		</g>
		<g>
			<path class="st2" d="M89.2,89.3c-0.8,4.6-5.2,7.7-9.8,6.9c-4.6-0.8-7.7-5.2-6.9-9.8c0.8-4.6,5.2-7.7,9.8-6.9
				C86.9,80.2,90,84.6,89.2,89.3z"/>
			<path class="st3" d="M85.9,84c-0.4,0.9-2.2,1-3.9,0.2c-1.7-0.8-2.8-2.2-2.3-3.1c0.4-0.9,2.2-1,3.9-0.2
				C85.3,81.7,86.4,83.1,85.9,84z"/>
		</g>
		<g>
			<path class="st2" d="M66.4,60.2c-0.7,4-4.6,6.8-8.6,6.1c-4-0.7-6.8-4.6-6.1-8.6c0.7-4,4.6-6.8,8.6-6.1
				C64.3,52.3,67.1,56.2,66.4,60.2z"/>
			<path class="st3" d="M63.5,55.6c-0.4,0.8-1.9,0.9-3.4,0.2c-1.5-0.7-2.4-1.9-2-2.7c0.4-0.8,1.9-0.9,3.4-0.2
				C63,53.6,63.9,54.8,63.5,55.6z"/>
		</g>
		<g>
			<path class="st2" d="M48.8,89.1c-0.7,4-4.6,6.8-8.6,6.1c-4-0.7-6.8-4.6-6.1-8.6c0.7-4,4.6-6.8,8.6-6.1
				C46.8,81.2,49.5,85,48.8,89.1z"/>
			<path class="st3" d="M45.9,84.5c-0.4,0.8-1.9,0.9-3.4,0.2c-1.5-0.7-2.4-1.9-2-2.7c0.4-0.8,1.9-0.9,3.4-0.2
				C45.4,82.4,46.3,83.7,45.9,84.5z"/>
		</g>
		<g>
			<path class="st0" d="M113.1,41c-1.2,6.7-7.5,11.2-14.2,10c-6.7-1.2-11.2-7.5-10-14.2c1.2-6.7,7.5-11.2,14.2-10
				C109.8,27.9,114.2,34.3,113.1,41z"/>
			<path class="st1" d="M113.2,38.2c-0.3-5.6-4.4-10.5-10.2-11.5c-4-0.7-7.9,0.6-10.6,3.2c-0.8,1.3-1.4,2.9-1.7,4.5
				c-1.2,6.7,2.9,13,9.1,14.1c6.2,1.1,12.2-3.5,13.3-10.2C113.2,38.3,113.2,38.3,113.2,38.2z"/>
		</g>
		<g>
			<path class="st0" d="M135.8,61.5c-0.9,5-5.7,8.4-10.7,7.5c-5-0.9-8.4-5.7-7.5-10.7c0.9-5,5.7-8.4,10.7-7.5
				C133.3,51.7,136.7,56.5,135.8,61.5z"/>
			<path class="st1" d="M136,59.4c-0.2-4.2-3.3-7.9-7.6-8.6c-3-0.5-5.9,0.5-8,2.4c-0.6,1-1,2.1-1.3,3.4c-0.9,5,2.2,9.8,6.8,10.6
				c4.6,0.8,9.1-2.6,10-7.6C136,59.5,136,59.5,136,59.4z"/>
		</g>
		<g>
			<path class="st0" d="M106.8,7c-0.6,3.3-3.7,5.4-6.9,4.9c-3.3-0.6-5.4-3.7-4.9-6.9c0.6-3.3,3.7-5.4,6.9-4.9
				C105.2,0.7,107.4,3.8,106.8,7z"/>
			<path class="st1" d="M106.9,5.7c-0.1-2.7-2.1-5.1-4.9-5.6c-1.9-0.3-3.8,0.3-5.2,1.6c-0.4,0.7-0.7,1.4-0.8,2.2
				c-0.6,3.3,1.4,6.3,4.4,6.8C103.4,11.2,106.3,9,106.9,5.7C106.9,5.7,106.9,5.7,106.9,5.7z"/>
		</g>
	</g>
</g>
<g id="TEXTS">
</g>
</svg>
