<svg xmlns="http://www.w3.org/2000/svg" viewBox="0 0 890.4 165.7"><defs><style>.cls-1{fill:#504847;}.cls-2{fill:#e73848;}.cls-3{fill:#c52a34;}</style></defs><g id="Layer_2" data-name="Layer 2"><g id="svg8"><path class="cls-1" d="M223.5,52.9H193.7V28H283V52.9H253.2v87.6H223.4V52.9Z"/><path class="cls-1" d="M289.7,83.7c0-37.1,21-57.8,52.2-57.8s52.2,21,52.2,57.8c0,37.1-21,58.9-52.2,58.9S289.7,120.9,289.7,83.7Zm74,0c0-20.3-8.4-32.2-21.7-32.2-13.7,0-21.7,11.9-21.7,32.2S328.7,117,342,117,363.7,104.1,363.7,83.7Z"/><path class="cls-1" d="M432.3,52.9H402.5V28h89.3V52.9H462v87.6H432.2V52.9Z"/><path class="cls-1" d="M555,116.7H523.5l-5.6,23.8H487.4L521.7,28h36.1l34.3,112.5H560.6Zm-5.6-23.2-1.8-7.7c-2.8-10.9-5.6-24.5-8.4-35.7h-.7c-2.5,11.6-5.3,24.9-8.1,35.7l-1.8,7.7Z"/><path class="cls-1" d="M602.6,28h29.8v87.6h42.7v24.9H602.6Z"/><path class="cls-1" d="M767.6,105.5h-42l-11.2,35H699.7L738.6,25.6H755l38.9,114.9H778.5Zm-3.8-12L758.5,76c-4.2-13-8.1-25.6-11.6-38.9h-.7C742.7,50.4,738.8,63,735,76l-5.6,17.5Z"/><path class="cls-1" d="M799.2,25.6H815l18.6,62c4.2,13.7,6.7,24.5,11.2,38.2h.7c4.2-13.7,7-24.5,11.2-38.2l18.6-62h15.1L854,140.5H836.8Z"/><path class="cls-2" d="M80.6,107.9H68.3V86.2A22,22,0,0,1,80.6,45.9c11.2,0,0-45.5,0-45.5L0,35S2.5,136.3,80.6,165.7C93.5,128.2,80.6,107.9,80.6,107.9Z"/><path class="cls-3" d="M80.6,0V45.5a22,22,0,0,1,22.1,22.1,21.53,21.53,0,0,1-9.8,18.2v21.7H80.6v57.8c78.1-29.4,80.6-130.7,80.6-130.7Z"/></g></g></svg>